<?xml version="1.0" encoding="UTF-8"?>
<svg xmlns="http://www.w3.org/2000/svg" xmlns:xlink="http://www.w3.org/1999/xlink" width="1920" height="1080" viewBox="0 0 1920 1080">
<defs>
<g>
<g id="glyph-0-0">
<path d="M 1.1875 0.046875 C 1 0.046875 0.832031 0.0078125 0.6875 -0.0625 C 0.539062 -0.144531 0.425781 -0.269531 0.34375 -0.4375 C 0.269531 -0.613281 0.234375 -0.835938 0.234375 -1.109375 C 0.234375 -1.398438 0.269531 -1.628906 0.34375 -1.796875 C 0.425781 -1.972656 0.535156 -2.097656 0.671875 -2.171875 C 0.816406 -2.242188 0.976562 -2.28125 1.15625 -2.28125 C 1.269531 -2.28125 1.382812 -2.265625 1.5 -2.234375 C 1.613281 -2.203125 1.707031 -2.15625 1.78125 -2.09375 C 1.851562 -2.03125 1.890625 -1.953125 1.890625 -1.859375 C 1.890625 -1.753906 1.859375 -1.679688 1.796875 -1.640625 C 1.734375 -1.609375 1.640625 -1.59375 1.515625 -1.59375 C 1.515625 -1.71875 1.488281 -1.828125 1.4375 -1.921875 C 1.394531 -2.015625 1.300781 -2.0625 1.15625 -2.0625 C 1.050781 -2.0625 0.957031 -2.035156 0.875 -1.984375 C 0.800781 -1.929688 0.742188 -1.832031 0.703125 -1.6875 C 0.660156 -1.550781 0.640625 -1.359375 0.640625 -1.109375 C 0.640625 -0.816406 0.6875 -0.597656 0.78125 -0.453125 C 0.882812 -0.304688 1.046875 -0.234375 1.265625 -0.234375 C 1.390625 -0.234375 1.5 -0.257812 1.59375 -0.3125 C 1.695312 -0.363281 1.769531 -0.429688 1.8125 -0.515625 C 1.863281 -0.484375 1.890625 -0.429688 1.890625 -0.359375 C 1.890625 -0.296875 1.863281 -0.234375 1.8125 -0.171875 C 1.757812 -0.109375 1.679688 -0.0546875 1.578125 -0.015625 C 1.472656 0.0234375 1.34375 0.046875 1.1875 0.046875 Z "/>
</g>
<g id="glyph-0-1">
<path d="M 0.40625 0 L 0.40625 -0.171875 L 0.6875 -0.171875 C 0.78125 -0.171875 0.859375 -0.1875 0.921875 -0.21875 C 0.984375 -0.257812 1.015625 -0.34375 1.015625 -0.46875 L 1.015625 -2.671875 C 0.910156 -2.535156 0.816406 -2.425781 0.734375 -2.34375 C 0.648438 -2.269531 0.566406 -2.234375 0.484375 -2.234375 C 0.421875 -2.234375 0.367188 -2.253906 0.328125 -2.296875 C 0.296875 -2.335938 0.28125 -2.390625 0.28125 -2.453125 C 0.363281 -2.472656 0.453125 -2.503906 0.546875 -2.546875 C 0.640625 -2.597656 0.753906 -2.675781 0.890625 -2.78125 L 1.171875 -3 L 1.4375 -3 L 1.4375 -0.46875 C 1.4375 -0.34375 1.46875 -0.257812 1.53125 -0.21875 C 1.601562 -0.1875 1.6875 -0.171875 1.78125 -0.171875 L 1.984375 -0.171875 L 1.984375 0 Z "/>
</g>
</g>
</defs>
<g fill="rgb(96.862745%, 85.098039%, 43.529412%)" fill-opacity="1">
<use xlink:href="#glyph-0-0" x="30" y="24.454102"/>
<use xlink:href="#glyph-0-1" x="32" y="24.454102"/>
</g>
</svg>
