<?xml version="1.0" encoding="UTF-8"?>
<svg xmlns="http://www.w3.org/2000/svg" xmlns:xlink="http://www.w3.org/1999/xlink" width="1920" height="1080" viewBox="0 0 1920 1080">
<defs>
<g>
<g id="glyph-0-0">
<path d="M 2.734375 0.0625 C 2.210938 0.0625 1.773438 -0.0390625 1.421875 -0.25 C 1.078125 -0.457031 0.816406 -0.753906 0.640625 -1.140625 C 0.460938 -1.523438 0.375 -1.972656 0.375 -2.484375 C 0.375 -2.984375 0.460938 -3.421875 0.640625 -3.796875 C 0.828125 -4.179688 1.097656 -4.476562 1.453125 -4.6875 C 1.804688 -4.90625 2.25 -5.015625 2.78125 -5.015625 C 3.3125 -5.015625 3.707031 -4.9375 3.96875 -4.78125 C 4.226562 -4.632812 4.359375 -4.445312 4.359375 -4.21875 C 4.359375 -4.039062 4.28125 -3.894531 4.125 -3.78125 C 3.976562 -3.664062 3.765625 -3.609375 3.484375 -3.609375 C 3.484375 -3.765625 3.457031 -3.914062 3.40625 -4.0625 C 3.363281 -4.207031 3.285156 -4.328125 3.171875 -4.421875 C 3.066406 -4.523438 2.914062 -4.578125 2.71875 -4.578125 C 2.28125 -4.578125 1.972656 -4.394531 1.796875 -4.03125 C 1.628906 -3.664062 1.546875 -3.148438 1.546875 -2.484375 C 1.546875 -1.816406 1.648438 -1.316406 1.859375 -0.984375 C 2.066406 -0.648438 2.414062 -0.484375 2.90625 -0.484375 C 3.144531 -0.484375 3.347656 -0.515625 3.515625 -0.578125 C 3.691406 -0.648438 3.835938 -0.734375 3.953125 -0.828125 C 4.066406 -0.929688 4.160156 -1.035156 4.234375 -1.140625 C 4.316406 -1.078125 4.359375 -0.976562 4.359375 -0.84375 C 4.359375 -0.71875 4.304688 -0.582031 4.203125 -0.4375 C 4.109375 -0.300781 3.941406 -0.179688 3.703125 -0.078125 C 3.460938 0.015625 3.140625 0.0625 2.734375 0.0625 Z "/>
</g>
<g id="glyph-0-1">
<path d="M 2.109375 0.0625 C 1.554688 0.0625 1.117188 -0.09375 0.796875 -0.40625 C 0.484375 -0.726562 0.328125 -1.21875 0.328125 -1.875 C 0.328125 -2.519531 0.476562 -3.003906 0.78125 -3.328125 C 1.082031 -3.648438 1.535156 -3.8125 2.140625 -3.8125 C 2.691406 -3.8125 3.125 -3.648438 3.4375 -3.328125 C 3.757812 -3.003906 3.921875 -2.519531 3.921875 -1.875 C 3.921875 -1.21875 3.769531 -0.726562 3.46875 -0.40625 C 3.164062 -0.09375 2.710938 0.0625 2.109375 0.0625 Z M 2.125 -0.375 C 2.394531 -0.375 2.582031 -0.5 2.6875 -0.75 C 2.789062 -1.007812 2.84375 -1.382812 2.84375 -1.875 C 2.84375 -2.363281 2.789062 -2.734375 2.6875 -2.984375 C 2.582031 -3.234375 2.394531 -3.359375 2.125 -3.359375 C 1.851562 -3.359375 1.664062 -3.234375 1.5625 -2.984375 C 1.457031 -2.734375 1.40625 -2.363281 1.40625 -1.875 C 1.40625 -1.382812 1.457031 -1.007812 1.5625 -0.75 C 1.675781 -0.5 1.863281 -0.375 2.125 -0.375 Z "/>
</g>
<g id="glyph-0-2">
<path d="M 0.140625 0 L 0.140625 -0.375 L 0.1875 -0.375 C 0.34375 -0.375 0.460938 -0.398438 0.546875 -0.453125 C 0.640625 -0.503906 0.6875 -0.632812 0.6875 -0.84375 L 0.6875 -2.921875 C 0.6875 -3.117188 0.640625 -3.242188 0.546875 -3.296875 C 0.460938 -3.347656 0.34375 -3.375 0.1875 -3.375 L 0.171875 -3.375 L 0.171875 -3.71875 L 1.625 -3.71875 L 1.71875 -3.21875 L 1.75 -3.21875 C 1.863281 -3.414062 2.003906 -3.5625 2.171875 -3.65625 C 2.335938 -3.757812 2.566406 -3.8125 2.859375 -3.8125 C 3.097656 -3.8125 3.300781 -3.765625 3.46875 -3.671875 C 3.644531 -3.578125 3.773438 -3.425781 3.859375 -3.21875 L 3.90625 -3.21875 C 4.113281 -3.613281 4.484375 -3.8125 5.015625 -3.8125 C 5.378906 -3.8125 5.660156 -3.703125 5.859375 -3.484375 C 6.066406 -3.273438 6.171875 -2.9375 6.171875 -2.46875 L 6.171875 -0.859375 C 6.171875 -0.640625 6.207031 -0.503906 6.28125 -0.453125 C 6.363281 -0.398438 6.484375 -0.375 6.640625 -0.375 L 6.671875 -0.375 L 6.671875 0 L 5.125 0 L 5.125 -2.28125 C 5.125 -2.570312 5.082031 -2.800781 5 -2.96875 C 4.914062 -3.132812 4.769531 -3.21875 4.5625 -3.21875 C 4.414062 -3.21875 4.296875 -3.171875 4.203125 -3.078125 C 4.117188 -2.992188 4.054688 -2.875 4.015625 -2.71875 C 3.984375 -2.5625 3.96875 -2.398438 3.96875 -2.234375 L 3.96875 -0.859375 C 3.96875 -0.640625 4.003906 -0.503906 4.078125 -0.453125 C 4.148438 -0.398438 4.265625 -0.375 4.421875 -0.375 L 4.453125 -0.375 L 4.453125 0 L 2.90625 0 L 2.90625 -2.28125 C 2.90625 -2.570312 2.863281 -2.800781 2.78125 -2.96875 C 2.707031 -3.132812 2.566406 -3.21875 2.359375 -3.21875 C 2.210938 -3.21875 2.09375 -3.164062 2 -3.0625 C 1.90625 -2.96875 1.835938 -2.835938 1.796875 -2.671875 C 1.765625 -2.503906 1.75 -2.328125 1.75 -2.140625 L 1.75 -0.8125 C 1.75 -0.625 1.789062 -0.503906 1.875 -0.453125 C 1.96875 -0.398438 2.09375 -0.375 2.25 -0.375 L 2.265625 -0.375 L 2.265625 0 Z "/>
</g>
<g id="glyph-0-3">
<path d="M 0.09375 1.59375 L 0.09375 1.21875 L 0.171875 1.21875 C 0.234375 1.21875 0.300781 1.207031 0.375 1.1875 C 0.457031 1.164062 0.523438 1.125 0.578125 1.0625 C 0.640625 1 0.671875 0.898438 0.671875 0.765625 L 0.671875 -2.859375 C 0.671875 -3.078125 0.625 -3.210938 0.53125 -3.265625 C 0.445312 -3.316406 0.335938 -3.34375 0.203125 -3.34375 L 0.15625 -3.34375 L 0.15625 -3.71875 L 1.515625 -3.71875 L 1.640625 -3.171875 L 1.671875 -3.171875 C 1.765625 -3.359375 1.894531 -3.503906 2.0625 -3.609375 C 2.238281 -3.722656 2.457031 -3.78125 2.71875 -3.78125 C 3.1875 -3.78125 3.539062 -3.625 3.78125 -3.3125 C 4.03125 -3 4.15625 -2.507812 4.15625 -1.84375 C 4.15625 -1.175781 4.03125 -0.6875 3.78125 -0.375 C 3.539062 -0.0703125 3.1875 0.078125 2.71875 0.078125 C 2.476562 0.078125 2.273438 0.0351562 2.109375 -0.046875 C 1.953125 -0.140625 1.828125 -0.257812 1.734375 -0.40625 L 1.6875 -0.40625 C 1.695312 -0.28125 1.703125 -0.148438 1.703125 -0.015625 C 1.710938 0.117188 1.71875 0.25 1.71875 0.375 L 1.71875 0.765625 C 1.71875 0.898438 1.742188 1 1.796875 1.0625 C 1.859375 1.125 1.925781 1.164062 2 1.1875 C 2.070312 1.207031 2.144531 1.21875 2.21875 1.21875 L 2.359375 1.21875 L 2.359375 1.59375 Z M 2.421875 -0.4375 C 2.660156 -0.4375 2.828125 -0.550781 2.921875 -0.78125 C 3.023438 -1.007812 3.078125 -1.363281 3.078125 -1.84375 C 3.078125 -2.300781 3.023438 -2.648438 2.921875 -2.890625 C 2.828125 -3.140625 2.664062 -3.265625 2.4375 -3.265625 C 2.15625 -3.265625 1.960938 -3.140625 1.859375 -2.890625 C 1.765625 -2.648438 1.71875 -2.300781 1.71875 -1.84375 C 1.71875 -1.363281 1.765625 -1.007812 1.859375 -0.78125 C 1.960938 -0.550781 2.148438 -0.4375 2.421875 -0.4375 Z "/>
</g>
<g id="glyph-0-4">
<path d="M 1.40625 0.0625 C 1.09375 0.0625 0.832031 -0.0234375 0.625 -0.203125 C 0.414062 -0.390625 0.3125 -0.675781 0.3125 -1.0625 C 0.3125 -1.4375 0.4375 -1.710938 0.6875 -1.890625 C 0.945312 -2.078125 1.335938 -2.175781 1.859375 -2.1875 L 2.4375 -2.21875 L 2.4375 -2.59375 C 2.4375 -2.84375 2.398438 -3.035156 2.328125 -3.171875 C 2.265625 -3.316406 2.140625 -3.390625 1.953125 -3.390625 C 1.773438 -3.390625 1.648438 -3.320312 1.578125 -3.1875 C 1.515625 -3.050781 1.484375 -2.867188 1.484375 -2.640625 C 1.179688 -2.640625 0.957031 -2.671875 0.8125 -2.734375 C 0.675781 -2.804688 0.609375 -2.925781 0.609375 -3.09375 C 0.609375 -3.269531 0.671875 -3.40625 0.796875 -3.5 C 0.921875 -3.601562 1.09375 -3.679688 1.3125 -3.734375 C 1.53125 -3.785156 1.769531 -3.8125 2.03125 -3.8125 C 2.519531 -3.8125 2.882812 -3.722656 3.125 -3.546875 C 3.363281 -3.367188 3.484375 -3.0625 3.484375 -2.625 L 3.484375 -0.859375 C 3.484375 -0.671875 3.515625 -0.539062 3.578125 -0.46875 C 3.640625 -0.40625 3.75 -0.375 3.90625 -0.375 L 3.9375 -0.375 L 3.9375 0 L 2.640625 0 L 2.5 -0.484375 L 2.4375 -0.484375 C 2.332031 -0.359375 2.234375 -0.253906 2.140625 -0.171875 C 2.046875 -0.0859375 1.941406 -0.03125 1.828125 0 C 1.722656 0.0390625 1.582031 0.0625 1.40625 0.0625 Z M 1.78125 -0.4375 C 1.976562 -0.4375 2.132812 -0.515625 2.25 -0.671875 C 2.375 -0.835938 2.4375 -1.054688 2.4375 -1.328125 L 2.4375 -1.84375 L 2.125 -1.828125 C 1.84375 -1.804688 1.648438 -1.726562 1.546875 -1.59375 C 1.441406 -1.46875 1.390625 -1.28125 1.390625 -1.03125 C 1.390625 -0.632812 1.519531 -0.4375 1.78125 -0.4375 Z "/>
</g>
<g id="glyph-0-5">
<path d="M 0.140625 0 L 0.140625 -0.375 L 0.171875 -0.375 C 0.328125 -0.375 0.453125 -0.398438 0.546875 -0.453125 C 0.640625 -0.515625 0.6875 -0.65625 0.6875 -0.875 L 0.6875 -2.875 C 0.6875 -3.082031 0.640625 -3.210938 0.546875 -3.265625 C 0.460938 -3.316406 0.34375 -3.34375 0.1875 -3.34375 L 0.171875 -3.34375 L 0.171875 -3.71875 L 1.5625 -3.71875 L 1.703125 -3.046875 L 1.734375 -3.046875 C 1.835938 -3.296875 1.960938 -3.484375 2.109375 -3.609375 C 2.265625 -3.734375 2.484375 -3.796875 2.765625 -3.796875 C 3.023438 -3.796875 3.21875 -3.738281 3.34375 -3.625 C 3.46875 -3.519531 3.53125 -3.375 3.53125 -3.1875 C 3.53125 -2.976562 3.453125 -2.820312 3.296875 -2.71875 C 3.148438 -2.613281 2.9375 -2.5625 2.65625 -2.5625 C 2.65625 -2.75 2.632812 -2.890625 2.59375 -2.984375 C 2.550781 -3.085938 2.460938 -3.140625 2.328125 -3.140625 C 2.222656 -3.140625 2.132812 -3.097656 2.0625 -3.015625 C 1.988281 -2.941406 1.925781 -2.84375 1.875 -2.71875 C 1.832031 -2.59375 1.800781 -2.457031 1.78125 -2.3125 C 1.757812 -2.164062 1.75 -2.023438 1.75 -1.890625 L 1.75 -0.828125 C 1.75 -0.628906 1.796875 -0.503906 1.890625 -0.453125 C 1.984375 -0.398438 2.097656 -0.375 2.234375 -0.375 L 2.453125 -0.375 L 2.453125 0 Z "/>
</g>
<g id="glyph-0-6">
<path d="M 2.046875 0.0625 C 1.703125 0.0625 1.398438 0.00390625 1.140625 -0.109375 C 0.890625 -0.234375 0.691406 -0.4375 0.546875 -0.71875 C 0.398438 -1 0.328125 -1.375 0.328125 -1.84375 C 0.328125 -2.34375 0.398438 -2.734375 0.546875 -3.015625 C 0.703125 -3.304688 0.90625 -3.507812 1.15625 -3.625 C 1.414062 -3.75 1.707031 -3.8125 2.03125 -3.8125 C 2.476562 -3.8125 2.816406 -3.738281 3.046875 -3.59375 C 3.285156 -3.457031 3.40625 -3.285156 3.40625 -3.078125 C 3.40625 -2.972656 3.378906 -2.875 3.328125 -2.78125 C 3.273438 -2.695312 3.179688 -2.625 3.046875 -2.5625 C 2.921875 -2.507812 2.738281 -2.484375 2.5 -2.484375 C 2.5 -2.640625 2.484375 -2.785156 2.453125 -2.921875 C 2.429688 -3.066406 2.390625 -3.179688 2.328125 -3.265625 C 2.265625 -3.347656 2.171875 -3.390625 2.046875 -3.390625 C 1.921875 -3.390625 1.804688 -3.34375 1.703125 -3.25 C 1.609375 -3.15625 1.53125 -3 1.46875 -2.78125 C 1.414062 -2.5625 1.390625 -2.253906 1.390625 -1.859375 C 1.390625 -1.390625 1.453125 -1.035156 1.578125 -0.796875 C 1.710938 -0.566406 1.925781 -0.453125 2.21875 -0.453125 C 2.457031 -0.453125 2.664062 -0.503906 2.84375 -0.609375 C 3.019531 -0.722656 3.144531 -0.859375 3.21875 -1.015625 C 3.28125 -0.984375 3.320312 -0.9375 3.34375 -0.875 C 3.375 -0.8125 3.390625 -0.75 3.390625 -0.6875 C 3.390625 -0.570312 3.34375 -0.457031 3.25 -0.34375 C 3.15625 -0.226562 3.007812 -0.128906 2.8125 -0.046875 C 2.613281 0.0234375 2.359375 0.0625 2.046875 0.0625 Z M 1.859375 1.671875 C 1.785156 1.671875 1.6875 1.660156 1.5625 1.640625 C 1.4375 1.628906 1.332031 1.613281 1.25 1.59375 L 1.25 1.171875 C 1.4375 1.203125 1.59375 1.21875 1.71875 1.21875 C 1.851562 1.21875 1.957031 1.191406 2.03125 1.140625 C 2.101562 1.097656 2.140625 1.019531 2.140625 0.90625 C 2.140625 0.769531 2.085938 0.675781 1.984375 0.625 C 1.890625 0.582031 1.769531 0.554688 1.625 0.546875 L 1.78125 -0.0625 L 2.171875 -0.0625 L 2.09375 0.234375 C 2.320312 0.253906 2.503906 0.316406 2.640625 0.421875 C 2.773438 0.535156 2.84375 0.6875 2.84375 0.875 C 2.84375 1.113281 2.75 1.304688 2.5625 1.453125 C 2.382812 1.597656 2.148438 1.671875 1.859375 1.671875 Z "/>
</g>
<g id="glyph-0-7">
<path d="M 1.40625 0.0625 C 1.09375 0.0625 0.832031 -0.0234375 0.625 -0.203125 C 0.414062 -0.390625 0.3125 -0.675781 0.3125 -1.0625 C 0.3125 -1.4375 0.4375 -1.710938 0.6875 -1.890625 C 0.945312 -2.078125 1.335938 -2.175781 1.859375 -2.1875 L 2.4375 -2.21875 L 2.4375 -2.59375 C 2.4375 -2.84375 2.398438 -3.035156 2.328125 -3.171875 C 2.265625 -3.316406 2.140625 -3.390625 1.953125 -3.390625 C 1.773438 -3.390625 1.648438 -3.320312 1.578125 -3.1875 C 1.515625 -3.050781 1.484375 -2.867188 1.484375 -2.640625 C 1.179688 -2.640625 0.957031 -2.671875 0.8125 -2.734375 C 0.675781 -2.804688 0.609375 -2.925781 0.609375 -3.09375 C 0.609375 -3.269531 0.671875 -3.40625 0.796875 -3.5 C 0.921875 -3.601562 1.09375 -3.679688 1.3125 -3.734375 C 1.53125 -3.785156 1.769531 -3.8125 2.03125 -3.8125 C 2.519531 -3.8125 2.882812 -3.722656 3.125 -3.546875 C 3.363281 -3.367188 3.484375 -3.0625 3.484375 -2.625 L 3.484375 -0.859375 C 3.484375 -0.671875 3.515625 -0.539062 3.578125 -0.46875 C 3.640625 -0.40625 3.75 -0.375 3.90625 -0.375 L 3.9375 -0.375 L 3.9375 0 L 2.640625 0 L 2.5 -0.484375 L 2.4375 -0.484375 C 2.332031 -0.359375 2.234375 -0.253906 2.140625 -0.171875 C 2.046875 -0.0859375 1.941406 -0.03125 1.828125 0 C 1.722656 0.0390625 1.582031 0.0625 1.40625 0.0625 Z M 1.78125 -0.4375 C 1.976562 -0.4375 2.132812 -0.515625 2.25 -0.671875 C 2.375 -0.835938 2.4375 -1.054688 2.4375 -1.328125 L 2.4375 -1.84375 L 2.125 -1.828125 C 1.84375 -1.804688 1.648438 -1.726562 1.546875 -1.59375 C 1.441406 -1.46875 1.390625 -1.28125 1.390625 -1.03125 C 1.390625 -0.632812 1.519531 -0.4375 1.78125 -0.4375 Z M 2.59375 -4.203125 C 2.46875 -4.203125 2.351562 -4.222656 2.25 -4.265625 C 2.15625 -4.316406 2.0625 -4.367188 1.96875 -4.421875 C 1.882812 -4.484375 1.800781 -4.535156 1.71875 -4.578125 C 1.644531 -4.617188 1.570312 -4.640625 1.5 -4.640625 C 1.40625 -4.640625 1.328125 -4.597656 1.265625 -4.515625 C 1.210938 -4.441406 1.179688 -4.363281 1.171875 -4.28125 L 0.71875 -4.28125 C 0.726562 -4.46875 0.769531 -4.632812 0.84375 -4.78125 C 0.914062 -4.9375 1.015625 -5.0625 1.140625 -5.15625 C 1.273438 -5.25 1.425781 -5.296875 1.59375 -5.296875 C 1.71875 -5.296875 1.828125 -5.273438 1.921875 -5.234375 C 2.023438 -5.191406 2.117188 -5.140625 2.203125 -5.078125 C 2.296875 -5.023438 2.378906 -4.972656 2.453125 -4.921875 C 2.523438 -4.878906 2.597656 -4.859375 2.671875 -4.859375 C 2.773438 -4.859375 2.851562 -4.894531 2.90625 -4.96875 C 2.957031 -5.050781 2.992188 -5.140625 3.015625 -5.234375 L 3.46875 -5.234375 C 3.457031 -5.046875 3.410156 -4.875 3.328125 -4.71875 C 3.253906 -4.5625 3.15625 -4.4375 3.03125 -4.34375 C 2.90625 -4.25 2.757812 -4.203125 2.59375 -4.203125 Z "/>
</g>
<g id="glyph-0-8">
</g>
<g id="glyph-0-9">
<path d="M 2.125 0.0625 C 1.53125 0.0625 1.082031 -0.101562 0.78125 -0.4375 C 0.476562 -0.769531 0.328125 -1.238281 0.328125 -1.84375 C 0.328125 -2.488281 0.472656 -2.976562 0.765625 -3.3125 C 1.066406 -3.644531 1.492188 -3.8125 2.046875 -3.8125 C 2.546875 -3.8125 2.941406 -3.671875 3.234375 -3.390625 C 3.523438 -3.109375 3.671875 -2.691406 3.671875 -2.140625 L 3.671875 -1.78125 L 1.390625 -1.78125 C 1.410156 -1.320312 1.5 -0.984375 1.65625 -0.765625 C 1.8125 -0.554688 2.046875 -0.453125 2.359375 -0.453125 C 2.597656 -0.453125 2.789062 -0.507812 2.9375 -0.625 C 3.09375 -0.738281 3.210938 -0.875 3.296875 -1.03125 C 3.359375 -1.007812 3.410156 -0.972656 3.453125 -0.921875 C 3.503906 -0.867188 3.53125 -0.800781 3.53125 -0.71875 C 3.53125 -0.601562 3.476562 -0.484375 3.375 -0.359375 C 3.28125 -0.242188 3.128906 -0.144531 2.921875 -0.0625 C 2.722656 0.0195312 2.457031 0.0625 2.125 0.0625 Z M 2.609375 -2.234375 C 2.609375 -2.578125 2.566406 -2.847656 2.484375 -3.046875 C 2.398438 -3.253906 2.257812 -3.359375 2.0625 -3.359375 C 1.863281 -3.359375 1.707031 -3.257812 1.59375 -3.0625 C 1.476562 -2.875 1.414062 -2.597656 1.40625 -2.234375 Z "/>
</g>
<g id="glyph-0-10">
<path d="M 0.140625 0 L 0.140625 -0.375 L 0.1875 -0.375 C 0.332031 -0.375 0.453125 -0.398438 0.546875 -0.453125 C 0.640625 -0.503906 0.6875 -0.632812 0.6875 -0.84375 L 0.6875 -2.90625 C 0.6875 -3.09375 0.644531 -3.210938 0.5625 -3.265625 C 0.476562 -3.316406 0.359375 -3.34375 0.203125 -3.34375 L 0.171875 -3.34375 L 0.171875 -3.71875 L 1.640625 -3.71875 L 1.734375 -3.21875 L 1.765625 -3.21875 C 1.867188 -3.414062 2.003906 -3.5625 2.171875 -3.65625 C 2.335938 -3.757812 2.554688 -3.8125 2.828125 -3.8125 C 3.191406 -3.8125 3.472656 -3.703125 3.671875 -3.484375 C 3.867188 -3.273438 3.96875 -2.9375 3.96875 -2.46875 L 3.96875 -0.859375 C 3.96875 -0.640625 4.003906 -0.503906 4.078125 -0.453125 C 4.148438 -0.398438 4.265625 -0.375 4.421875 -0.375 L 4.453125 -0.375 L 4.453125 0 L 2.90625 0 L 2.90625 -2.28125 C 2.90625 -2.570312 2.863281 -2.800781 2.78125 -2.96875 C 2.707031 -3.132812 2.570312 -3.21875 2.375 -3.21875 C 2.21875 -3.21875 2.09375 -3.164062 2 -3.0625 C 1.90625 -2.96875 1.835938 -2.835938 1.796875 -2.671875 C 1.765625 -2.503906 1.75 -2.328125 1.75 -2.140625 L 1.75 -0.8125 C 1.75 -0.625 1.789062 -0.503906 1.875 -0.453125 C 1.96875 -0.398438 2.085938 -0.375 2.234375 -0.375 L 2.265625 -0.375 L 2.265625 0 Z "/>
</g>
<g id="glyph-0-11">
<path d="M 1.765625 0.0625 C 1.410156 0.0625 1.140625 -0.015625 0.953125 -0.171875 C 0.765625 -0.335938 0.671875 -0.625 0.671875 -1.03125 L 0.671875 -3.25 L 0.140625 -3.25 L 0.140625 -3.59375 C 0.296875 -3.59375 0.429688 -3.625 0.546875 -3.6875 C 0.660156 -3.75 0.753906 -3.816406 0.828125 -3.890625 C 0.972656 -4.046875 1.078125 -4.273438 1.140625 -4.578125 L 1.71875 -4.578125 L 1.71875 -3.71875 L 2.609375 -3.71875 L 2.609375 -3.25 L 1.71875 -3.25 L 1.71875 -1.09375 C 1.71875 -0.882812 1.753906 -0.734375 1.828125 -0.640625 C 1.898438 -0.546875 2.015625 -0.5 2.171875 -0.5 C 2.265625 -0.5 2.351562 -0.503906 2.4375 -0.515625 C 2.519531 -0.523438 2.597656 -0.539062 2.671875 -0.5625 L 2.671875 -0.109375 C 2.597656 -0.078125 2.476562 -0.0390625 2.3125 0 C 2.15625 0.0390625 1.972656 0.0625 1.765625 0.0625 Z "/>
</g>
<g id="glyph-0-12">
<path d="M 0.1875 0 L 0.1875 -0.375 L 0.484375 -0.375 C 0.578125 -0.375 0.660156 -0.394531 0.734375 -0.4375 C 0.804688 -0.488281 0.84375 -0.613281 0.84375 -0.8125 L 0.84375 -4.140625 C 0.84375 -4.328125 0.804688 -4.445312 0.734375 -4.5 C 0.660156 -4.550781 0.578125 -4.578125 0.484375 -4.578125 L 0.1875 -4.578125 L 0.1875 -4.953125 L 2.21875 -4.953125 C 2.882812 -4.953125 3.378906 -4.847656 3.703125 -4.640625 C 4.035156 -4.441406 4.203125 -4.125 4.203125 -3.6875 C 4.203125 -3.382812 4.117188 -3.15625 3.953125 -3 C 3.796875 -2.84375 3.585938 -2.722656 3.328125 -2.640625 L 3.328125 -2.609375 C 3.648438 -2.523438 3.910156 -2.378906 4.109375 -2.171875 C 4.304688 -1.960938 4.40625 -1.691406 4.40625 -1.359375 C 4.40625 -0.453125 3.742188 0 2.421875 0 Z M 2.203125 -2.796875 C 2.523438 -2.796875 2.742188 -2.863281 2.859375 -3 C 2.972656 -3.144531 3.03125 -3.375 3.03125 -3.6875 C 3.03125 -4 2.96875 -4.21875 2.84375 -4.34375 C 2.71875 -4.46875 2.5 -4.53125 2.1875 -4.53125 L 1.9375 -4.53125 L 1.9375 -2.796875 Z M 2.390625 -0.421875 C 2.703125 -0.421875 2.921875 -0.492188 3.046875 -0.640625 C 3.179688 -0.785156 3.25 -1.03125 3.25 -1.375 C 3.25 -1.71875 3.1875 -1.96875 3.0625 -2.125 C 2.945312 -2.289062 2.726562 -2.375 2.40625 -2.375 L 1.9375 -2.375 L 1.9375 -0.421875 Z "/>
</g>
<g id="glyph-0-13">
<path d="M 1.1875 -4.34375 C 1.019531 -4.34375 0.878906 -4.378906 0.765625 -4.453125 C 0.648438 -4.535156 0.59375 -4.664062 0.59375 -4.84375 C 0.59375 -5.019531 0.648438 -5.144531 0.765625 -5.21875 C 0.878906 -5.300781 1.019531 -5.34375 1.1875 -5.34375 C 1.34375 -5.34375 1.476562 -5.300781 1.59375 -5.21875 C 1.71875 -5.144531 1.78125 -5.019531 1.78125 -4.84375 C 1.78125 -4.664062 1.71875 -4.535156 1.59375 -4.453125 C 1.476562 -4.378906 1.34375 -4.34375 1.1875 -4.34375 Z M 0.125 0 L 0.125 -0.375 L 0.203125 -0.375 C 0.335938 -0.375 0.453125 -0.40625 0.546875 -0.46875 C 0.640625 -0.53125 0.6875 -0.660156 0.6875 -0.859375 L 0.6875 -2.890625 C 0.6875 -3.066406 0.640625 -3.1875 0.546875 -3.25 C 0.453125 -3.3125 0.335938 -3.34375 0.203125 -3.34375 L 0.125 -3.34375 L 0.125 -3.71875 L 1.75 -3.71875 L 1.75 -0.859375 C 1.75 -0.660156 1.796875 -0.53125 1.890625 -0.46875 C 1.984375 -0.40625 2.097656 -0.375 2.234375 -0.375 L 2.328125 -0.375 L 2.328125 0 Z "/>
</g>
<g id="glyph-0-14">
<path d="M 1.59375 0.0625 C 1.113281 0.0625 0.765625 -0.0078125 0.546875 -0.15625 C 0.335938 -0.300781 0.234375 -0.488281 0.234375 -0.71875 C 0.234375 -0.914062 0.296875 -1.050781 0.421875 -1.125 C 0.546875 -1.195312 0.6875 -1.234375 0.84375 -1.234375 C 0.84375 -0.648438 1.097656 -0.359375 1.609375 -0.359375 C 1.847656 -0.359375 2.019531 -0.40625 2.125 -0.5 C 2.238281 -0.59375 2.296875 -0.707031 2.296875 -0.84375 C 2.296875 -0.988281 2.226562 -1.101562 2.09375 -1.1875 C 1.96875 -1.28125 1.753906 -1.378906 1.453125 -1.484375 C 1.179688 -1.578125 0.957031 -1.671875 0.78125 -1.765625 C 0.613281 -1.867188 0.488281 -1.992188 0.40625 -2.140625 C 0.320312 -2.285156 0.28125 -2.472656 0.28125 -2.703125 C 0.28125 -3.066406 0.414062 -3.335938 0.6875 -3.515625 C 0.957031 -3.703125 1.316406 -3.796875 1.765625 -3.796875 C 2.179688 -3.796875 2.484375 -3.726562 2.671875 -3.59375 C 2.859375 -3.457031 2.953125 -3.304688 2.953125 -3.140625 C 2.953125 -2.828125 2.738281 -2.671875 2.3125 -2.671875 C 2.3125 -2.898438 2.25 -3.078125 2.125 -3.203125 C 2.007812 -3.328125 1.859375 -3.390625 1.671875 -3.390625 C 1.484375 -3.390625 1.34375 -3.347656 1.25 -3.265625 C 1.15625 -3.191406 1.109375 -3.09375 1.109375 -2.96875 C 1.109375 -2.8125 1.164062 -2.691406 1.28125 -2.609375 C 1.40625 -2.523438 1.625 -2.425781 1.9375 -2.3125 C 2.1875 -2.226562 2.398438 -2.132812 2.578125 -2.03125 C 2.753906 -1.9375 2.882812 -1.816406 2.96875 -1.671875 C 3.0625 -1.535156 3.109375 -1.351562 3.109375 -1.125 C 3.109375 -0.75 2.972656 -0.457031 2.703125 -0.25 C 2.441406 -0.0390625 2.070312 0.0625 1.59375 0.0625 Z "/>
</g>
<g id="glyph-0-15">
<path d="M 0.1875 0 L 0.1875 -0.375 L 0.375 -0.375 C 0.519531 -0.375 0.632812 -0.398438 0.71875 -0.453125 C 0.800781 -0.503906 0.84375 -0.601562 0.84375 -0.75 L 0.84375 -4.1875 C 0.84375 -4.34375 0.800781 -4.445312 0.71875 -4.5 C 0.632812 -4.550781 0.539062 -4.578125 0.4375 -4.578125 L 0.1875 -4.578125 L 0.1875 -4.953125 L 4.046875 -4.953125 L 4.078125 -3.671875 L 3.59375 -3.671875 L 3.5625 -4.015625 C 3.539062 -4.191406 3.484375 -4.320312 3.390625 -4.40625 C 3.296875 -4.488281 3.179688 -4.53125 3.046875 -4.53125 L 1.9375 -4.53125 L 1.9375 -2.640625 L 3.59375 -2.640625 L 3.59375 -2.234375 L 1.9375 -2.234375 L 1.9375 -0.78125 C 1.9375 -0.625 1.972656 -0.515625 2.046875 -0.453125 C 2.128906 -0.398438 2.242188 -0.375 2.390625 -0.375 L 2.734375 -0.375 L 2.734375 0 Z "/>
</g>
<g id="glyph-0-16">
<path d="M 0.125 0 L 0.125 -0.375 L 0.203125 -0.375 C 0.335938 -0.375 0.453125 -0.40625 0.546875 -0.46875 C 0.640625 -0.53125 0.6875 -0.660156 0.6875 -0.859375 L 0.6875 -4.484375 C 0.6875 -4.609375 0.660156 -4.695312 0.609375 -4.75 C 0.554688 -4.8125 0.488281 -4.851562 0.40625 -4.875 C 0.332031 -4.894531 0.265625 -4.90625 0.203125 -4.90625 L 0.125 -4.90625 L 0.125 -5.265625 L 1.75 -5.265625 L 1.75 -0.859375 C 1.75 -0.660156 1.796875 -0.53125 1.890625 -0.46875 C 1.984375 -0.40625 2.097656 -0.375 2.234375 -0.375 L 2.328125 -0.375 L 2.328125 0 Z "/>
</g>
<g id="glyph-0-17">
<path d="M 0.1875 0 L 0.1875 -0.375 L 0.390625 -0.375 C 0.515625 -0.375 0.617188 -0.394531 0.703125 -0.4375 C 0.796875 -0.488281 0.84375 -0.613281 0.84375 -0.8125 L 0.84375 -4.15625 C 0.84375 -4.34375 0.796875 -4.457031 0.703125 -4.5 C 0.617188 -4.550781 0.523438 -4.578125 0.421875 -4.578125 L 0.1875 -4.578125 L 0.1875 -4.953125 L 2.359375 -4.953125 C 3.023438 -4.953125 3.515625 -4.828125 3.828125 -4.578125 C 4.140625 -4.328125 4.296875 -3.960938 4.296875 -3.484375 C 4.296875 -3.191406 4.226562 -2.921875 4.09375 -2.671875 C 3.957031 -2.429688 3.734375 -2.238281 3.421875 -2.09375 C 3.117188 -1.957031 2.71875 -1.890625 2.21875 -1.890625 L 1.9375 -1.890625 L 1.9375 -0.78125 C 1.9375 -0.59375 1.976562 -0.476562 2.0625 -0.4375 C 2.144531 -0.394531 2.242188 -0.375 2.359375 -0.375 L 2.734375 -0.375 L 2.734375 0 Z M 2.15625 -2.296875 C 2.5 -2.296875 2.75 -2.382812 2.90625 -2.5625 C 3.070312 -2.738281 3.15625 -3.035156 3.15625 -3.453125 C 3.15625 -3.828125 3.082031 -4.101562 2.9375 -4.28125 C 2.789062 -4.457031 2.5625 -4.546875 2.25 -4.546875 L 1.9375 -4.546875 L 1.9375 -2.296875 Z "/>
</g>
</g>
</defs>
<g fill="rgb(100%, 100%, 100%)" fill-opacity="1">
<use xlink:href="#glyph-0-0" x="30" y="27.423828"/>
<use xlink:href="#glyph-0-1" x="35" y="27.423828"/>
<use xlink:href="#glyph-0-2" x="39" y="27.423828"/>
<use xlink:href="#glyph-0-3" x="46" y="27.423828"/>
<use xlink:href="#glyph-0-4" x="50" y="27.423828"/>
<use xlink:href="#glyph-0-5" x="54" y="27.423828"/>
<use xlink:href="#glyph-0-4" x="57" y="27.423828"/>
<use xlink:href="#glyph-0-6" x="61" y="27.423828"/>
<use xlink:href="#glyph-0-7" x="65" y="27.423828"/>
<use xlink:href="#glyph-0-1" x="69" y="27.423828"/>
<use xlink:href="#glyph-0-8" x="73" y="27.423828"/>
<use xlink:href="#glyph-0-9" x="75" y="27.423828"/>
<use xlink:href="#glyph-0-10" x="79" y="27.423828"/>
<use xlink:href="#glyph-0-11" x="84" y="27.423828"/>
<use xlink:href="#glyph-0-5" x="87" y="27.423828"/>
<use xlink:href="#glyph-0-9" x="91" y="27.423828"/>
<use xlink:href="#glyph-0-8" x="95" y="27.423828"/>
<use xlink:href="#glyph-0-12" x="97" y="27.423828"/>
<use xlink:href="#glyph-0-13" x="102" y="27.423828"/>
<use xlink:href="#glyph-0-14" x="104" y="27.423828"/>
<use xlink:href="#glyph-0-14" x="107" y="27.423828"/>
<use xlink:href="#glyph-0-9" x="110" y="27.423828"/>
<use xlink:href="#glyph-0-6" x="114" y="27.423828"/>
<use xlink:href="#glyph-0-7" x="118" y="27.423828"/>
<use xlink:href="#glyph-0-1" x="122" y="27.423828"/>
<use xlink:href="#glyph-0-8" x="126" y="27.423828"/>
<use xlink:href="#glyph-0-9" x="128" y="27.423828"/>
<use xlink:href="#glyph-0-8" x="132" y="27.423828"/>
<use xlink:href="#glyph-0-15" x="134" y="27.423828"/>
<use xlink:href="#glyph-0-4" x="138" y="27.423828"/>
<use xlink:href="#glyph-0-16" x="142" y="27.423828"/>
<use xlink:href="#glyph-0-14" x="144" y="27.423828"/>
<use xlink:href="#glyph-0-4" x="147" y="27.423828"/>
<use xlink:href="#glyph-0-8" x="151" y="27.423828"/>
<use xlink:href="#glyph-0-17" x="153" y="27.423828"/>
<use xlink:href="#glyph-0-1" x="157" y="27.423828"/>
<use xlink:href="#glyph-0-14" x="161" y="27.423828"/>
<use xlink:href="#glyph-0-13" x="164" y="27.423828"/>
<use xlink:href="#glyph-0-6" x="166" y="27.423828"/>
<use xlink:href="#glyph-0-7" x="170" y="27.423828"/>
<use xlink:href="#glyph-0-1" x="174" y="27.423828"/>
</g>
</svg>
