<?xml version="1.0" encoding="UTF-8"?>
<svg xmlns="http://www.w3.org/2000/svg" xmlns:xlink="http://www.w3.org/1999/xlink" width="1920" height="1080" viewBox="0 0 1920 1080">
<defs>
<g>
<g id="glyph-0-0">
<path d="M 0.140625 0 L 0.140625 -0.28125 L 0.359375 -0.28125 C 0.441406 -0.28125 0.507812 -0.296875 0.5625 -0.328125 C 0.613281 -0.367188 0.640625 -0.46875 0.640625 -0.625 L 0.640625 -3.15625 C 0.640625 -3.289062 0.609375 -3.378906 0.546875 -3.421875 C 0.492188 -3.460938 0.429688 -3.484375 0.359375 -3.484375 L 0.140625 -3.484375 L 0.140625 -3.765625 L 1.6875 -3.765625 C 2.1875 -3.765625 2.5625 -3.6875 2.8125 -3.53125 C 3.070312 -3.382812 3.203125 -3.144531 3.203125 -2.8125 C 3.203125 -2.582031 3.140625 -2.40625 3.015625 -2.28125 C 2.890625 -2.164062 2.726562 -2.070312 2.53125 -2 L 2.53125 -1.984375 C 2.78125 -1.921875 2.976562 -1.8125 3.125 -1.65625 C 3.28125 -1.5 3.359375 -1.289062 3.359375 -1.03125 C 3.359375 -0.34375 2.851562 0 1.84375 0 Z M 1.671875 -2.140625 C 1.921875 -2.140625 2.085938 -2.191406 2.171875 -2.296875 C 2.265625 -2.398438 2.3125 -2.570312 2.3125 -2.8125 C 2.3125 -3.050781 2.257812 -3.21875 2.15625 -3.3125 C 2.0625 -3.40625 1.894531 -3.453125 1.65625 -3.453125 L 1.46875 -3.453125 L 1.46875 -2.140625 Z M 1.828125 -0.328125 C 2.054688 -0.328125 2.21875 -0.378906 2.3125 -0.484375 C 2.414062 -0.597656 2.46875 -0.785156 2.46875 -1.046875 C 2.46875 -1.304688 2.421875 -1.5 2.328125 -1.625 C 2.242188 -1.75 2.078125 -1.8125 1.828125 -1.8125 L 1.46875 -1.8125 L 1.46875 -0.328125 Z "/>
</g>
<g id="glyph-0-1">
<path d="M 0.90625 -3.3125 C 0.78125 -3.3125 0.671875 -3.335938 0.578125 -3.390625 C 0.492188 -3.453125 0.453125 -3.550781 0.453125 -3.6875 C 0.453125 -3.820312 0.492188 -3.914062 0.578125 -3.96875 C 0.671875 -4.03125 0.78125 -4.0625 0.90625 -4.0625 C 1.03125 -4.0625 1.132812 -4.03125 1.21875 -3.96875 C 1.3125 -3.914062 1.359375 -3.820312 1.359375 -3.6875 C 1.359375 -3.550781 1.3125 -3.453125 1.21875 -3.390625 C 1.132812 -3.335938 1.03125 -3.3125 0.90625 -3.3125 Z M 0.09375 0 L 0.09375 -0.28125 L 0.15625 -0.28125 C 0.257812 -0.28125 0.347656 -0.300781 0.421875 -0.34375 C 0.492188 -0.394531 0.53125 -0.5 0.53125 -0.65625 L 0.53125 -2.203125 C 0.53125 -2.335938 0.492188 -2.425781 0.421875 -2.46875 C 0.347656 -2.519531 0.257812 -2.546875 0.15625 -2.546875 L 0.09375 -2.546875 L 0.09375 -2.828125 L 1.328125 -2.828125 L 1.328125 -0.65625 C 1.328125 -0.5 1.363281 -0.394531 1.4375 -0.34375 C 1.507812 -0.300781 1.597656 -0.28125 1.703125 -0.28125 L 1.765625 -0.28125 L 1.765625 0 Z "/>
</g>
<g id="glyph-0-2">
<path d="M 1.203125 0.046875 C 0.835938 0.046875 0.570312 -0.00390625 0.40625 -0.109375 C 0.25 -0.222656 0.171875 -0.367188 0.171875 -0.546875 C 0.171875 -0.691406 0.21875 -0.789062 0.3125 -0.84375 C 0.414062 -0.90625 0.523438 -0.9375 0.640625 -0.9375 C 0.640625 -0.488281 0.835938 -0.265625 1.234375 -0.265625 C 1.410156 -0.265625 1.539062 -0.300781 1.625 -0.375 C 1.707031 -0.445312 1.75 -0.535156 1.75 -0.640625 C 1.75 -0.753906 1.695312 -0.84375 1.59375 -0.90625 C 1.5 -0.976562 1.335938 -1.050781 1.109375 -1.125 C 0.898438 -1.195312 0.726562 -1.269531 0.59375 -1.34375 C 0.46875 -1.425781 0.375 -1.519531 0.3125 -1.625 C 0.25 -1.738281 0.21875 -1.878906 0.21875 -2.046875 C 0.21875 -2.335938 0.316406 -2.550781 0.515625 -2.6875 C 0.722656 -2.820312 1 -2.890625 1.34375 -2.890625 C 1.664062 -2.890625 1.894531 -2.835938 2.03125 -2.734375 C 2.175781 -2.628906 2.25 -2.515625 2.25 -2.390625 C 2.25 -2.148438 2.085938 -2.03125 1.765625 -2.03125 C 1.765625 -2.207031 1.71875 -2.34375 1.625 -2.4375 C 1.53125 -2.53125 1.410156 -2.578125 1.265625 -2.578125 C 1.128906 -2.578125 1.023438 -2.546875 0.953125 -2.484375 C 0.878906 -2.429688 0.84375 -2.351562 0.84375 -2.25 C 0.84375 -2.132812 0.890625 -2.046875 0.984375 -1.984375 C 1.078125 -1.921875 1.242188 -1.847656 1.484375 -1.765625 C 1.671875 -1.703125 1.828125 -1.628906 1.953125 -1.546875 C 2.085938 -1.472656 2.1875 -1.378906 2.25 -1.265625 C 2.320312 -1.160156 2.359375 -1.023438 2.359375 -0.859375 C 2.359375 -0.578125 2.257812 -0.351562 2.0625 -0.1875 C 1.863281 -0.03125 1.578125 0.046875 1.203125 0.046875 Z "/>
</g>
<g id="glyph-0-3">
<path d="M 1.609375 0.046875 C 1.160156 0.046875 0.820312 -0.078125 0.59375 -0.328125 C 0.363281 -0.585938 0.25 -0.945312 0.25 -1.40625 C 0.25 -1.894531 0.359375 -2.265625 0.578125 -2.515625 C 0.804688 -2.773438 1.132812 -2.90625 1.5625 -2.90625 C 1.945312 -2.90625 2.25 -2.796875 2.46875 -2.578125 C 2.6875 -2.359375 2.796875 -2.039062 2.796875 -1.625 L 2.796875 -1.359375 L 1.0625 -1.359375 C 1.070312 -1.003906 1.132812 -0.742188 1.25 -0.578125 C 1.375 -0.421875 1.554688 -0.34375 1.796875 -0.34375 C 1.972656 -0.34375 2.117188 -0.382812 2.234375 -0.46875 C 2.359375 -0.5625 2.453125 -0.664062 2.515625 -0.78125 C 2.554688 -0.769531 2.59375 -0.742188 2.625 -0.703125 C 2.664062 -0.660156 2.6875 -0.609375 2.6875 -0.546875 C 2.6875 -0.453125 2.648438 -0.359375 2.578125 -0.265625 C 2.503906 -0.179688 2.390625 -0.109375 2.234375 -0.046875 C 2.078125 0.015625 1.867188 0.046875 1.609375 0.046875 Z M 1.984375 -1.6875 C 1.984375 -1.957031 1.953125 -2.171875 1.890625 -2.328125 C 1.828125 -2.484375 1.71875 -2.5625 1.5625 -2.5625 C 1.414062 -2.5625 1.300781 -2.488281 1.21875 -2.34375 C 1.132812 -2.195312 1.085938 -1.976562 1.078125 -1.6875 Z "/>
</g>
<g id="glyph-0-4">
<path d="M 1.5625 0.046875 C 1.300781 0.046875 1.070312 0 0.875 -0.09375 C 0.675781 -0.1875 0.519531 -0.335938 0.40625 -0.546875 C 0.300781 -0.753906 0.25 -1.039062 0.25 -1.40625 C 0.25 -1.78125 0.304688 -2.078125 0.421875 -2.296875 C 0.535156 -2.515625 0.6875 -2.671875 0.875 -2.765625 C 1.070312 -2.859375 1.296875 -2.90625 1.546875 -2.90625 C 1.878906 -2.90625 2.132812 -2.847656 2.3125 -2.734375 C 2.5 -2.628906 2.59375 -2.5 2.59375 -2.34375 C 2.59375 -2.269531 2.570312 -2.195312 2.53125 -2.125 C 2.5 -2.0625 2.429688 -2.003906 2.328125 -1.953125 C 2.234375 -1.910156 2.09375 -1.890625 1.90625 -1.890625 C 1.90625 -2.015625 1.894531 -2.128906 1.875 -2.234375 C 1.851562 -2.335938 1.816406 -2.421875 1.765625 -2.484375 C 1.710938 -2.546875 1.644531 -2.578125 1.5625 -2.578125 C 1.457031 -2.578125 1.367188 -2.539062 1.296875 -2.46875 C 1.222656 -2.40625 1.164062 -2.285156 1.125 -2.109375 C 1.082031 -1.941406 1.0625 -1.707031 1.0625 -1.40625 C 1.0625 -1.050781 1.109375 -0.785156 1.203125 -0.609375 C 1.304688 -0.429688 1.46875 -0.34375 1.6875 -0.34375 C 1.875 -0.34375 2.03125 -0.382812 2.15625 -0.46875 C 2.289062 -0.550781 2.390625 -0.648438 2.453125 -0.765625 C 2.492188 -0.742188 2.523438 -0.707031 2.546875 -0.65625 C 2.566406 -0.613281 2.578125 -0.570312 2.578125 -0.53125 C 2.578125 -0.4375 2.539062 -0.34375 2.46875 -0.25 C 2.394531 -0.164062 2.285156 -0.09375 2.140625 -0.03125 C 1.992188 0.0195312 1.800781 0.046875 1.5625 0.046875 Z M 1.40625 1.265625 C 1.351562 1.265625 1.28125 1.257812 1.1875 1.25 C 1.09375 1.238281 1.015625 1.222656 0.953125 1.203125 L 0.953125 0.890625 C 1.085938 0.910156 1.207031 0.921875 1.3125 0.921875 C 1.414062 0.921875 1.492188 0.898438 1.546875 0.859375 C 1.609375 0.828125 1.640625 0.769531 1.640625 0.6875 C 1.640625 0.582031 1.597656 0.507812 1.515625 0.46875 C 1.441406 0.4375 1.347656 0.421875 1.234375 0.421875 L 1.34375 -0.046875 L 1.65625 -0.046875 L 1.59375 0.171875 C 1.769531 0.191406 1.90625 0.242188 2 0.328125 C 2.101562 0.410156 2.15625 0.523438 2.15625 0.671875 C 2.15625 0.859375 2.085938 1.003906 1.953125 1.109375 C 1.816406 1.210938 1.632812 1.265625 1.40625 1.265625 Z "/>
</g>
<g id="glyph-0-5">
<path d="M 1.0625 0.046875 C 0.832031 0.046875 0.632812 -0.0195312 0.46875 -0.15625 C 0.3125 -0.300781 0.234375 -0.519531 0.234375 -0.8125 C 0.234375 -1.09375 0.332031 -1.300781 0.53125 -1.4375 C 0.726562 -1.570312 1.023438 -1.648438 1.421875 -1.671875 L 1.859375 -1.6875 L 1.859375 -1.96875 C 1.859375 -2.164062 1.832031 -2.316406 1.78125 -2.421875 C 1.726562 -2.523438 1.628906 -2.578125 1.484375 -2.578125 C 1.347656 -2.578125 1.253906 -2.523438 1.203125 -2.421875 C 1.148438 -2.328125 1.125 -2.1875 1.125 -2 C 0.894531 -2 0.722656 -2.023438 0.609375 -2.078125 C 0.503906 -2.140625 0.453125 -2.234375 0.453125 -2.359375 C 0.453125 -2.492188 0.5 -2.597656 0.59375 -2.671875 C 0.695312 -2.742188 0.832031 -2.800781 1 -2.84375 C 1.164062 -2.882812 1.347656 -2.90625 1.546875 -2.90625 C 1.921875 -2.90625 2.195312 -2.835938 2.375 -2.703125 C 2.5625 -2.566406 2.65625 -2.332031 2.65625 -2 L 2.65625 -0.65625 C 2.65625 -0.507812 2.675781 -0.410156 2.71875 -0.359375 C 2.769531 -0.304688 2.851562 -0.28125 2.96875 -0.28125 L 3 -0.28125 L 3 0 L 2.015625 0 L 1.90625 -0.359375 L 1.859375 -0.359375 C 1.773438 -0.265625 1.695312 -0.1875 1.625 -0.125 C 1.5625 -0.0625 1.484375 -0.0195312 1.390625 0 C 1.304688 0.03125 1.195312 0.046875 1.0625 0.046875 Z M 1.359375 -0.328125 C 1.503906 -0.328125 1.625 -0.390625 1.71875 -0.515625 C 1.8125 -0.640625 1.859375 -0.804688 1.859375 -1.015625 L 1.859375 -1.40625 L 1.609375 -1.390625 C 1.398438 -1.378906 1.253906 -1.320312 1.171875 -1.21875 C 1.097656 -1.125 1.0625 -0.976562 1.0625 -0.78125 C 1.0625 -0.476562 1.160156 -0.328125 1.359375 -0.328125 Z M 1.96875 -3.203125 C 1.875 -3.203125 1.785156 -3.21875 1.703125 -3.25 C 1.628906 -3.28125 1.5625 -3.316406 1.5 -3.359375 C 1.4375 -3.410156 1.375 -3.453125 1.3125 -3.484375 C 1.25 -3.515625 1.191406 -3.53125 1.140625 -3.53125 C 1.066406 -3.53125 1.007812 -3.5 0.96875 -3.4375 C 0.925781 -3.382812 0.894531 -3.320312 0.875 -3.25 L 0.546875 -3.25 C 0.546875 -3.394531 0.570312 -3.523438 0.625 -3.640625 C 0.6875 -3.765625 0.765625 -3.859375 0.859375 -3.921875 C 0.960938 -3.992188 1.078125 -4.03125 1.203125 -4.03125 C 1.296875 -4.03125 1.378906 -4.015625 1.453125 -3.984375 C 1.535156 -3.953125 1.609375 -3.910156 1.671875 -3.859375 C 1.742188 -3.816406 1.804688 -3.78125 1.859375 -3.75 C 1.921875 -3.71875 1.976562 -3.703125 2.03125 -3.703125 C 2.101562 -3.703125 2.160156 -3.726562 2.203125 -3.78125 C 2.242188 -3.84375 2.269531 -3.910156 2.28125 -3.984375 L 2.625 -3.984375 C 2.625 -3.835938 2.59375 -3.703125 2.53125 -3.578125 C 2.476562 -3.460938 2.398438 -3.367188 2.296875 -3.296875 C 2.203125 -3.234375 2.09375 -3.203125 1.96875 -3.203125 Z "/>
</g>
<g id="glyph-0-6">
<path d="M 1.609375 0.046875 C 1.191406 0.046875 0.859375 -0.0703125 0.609375 -0.3125 C 0.367188 -0.5625 0.25 -0.929688 0.25 -1.421875 C 0.25 -1.921875 0.363281 -2.289062 0.59375 -2.53125 C 0.832031 -2.78125 1.175781 -2.90625 1.625 -2.90625 C 2.050781 -2.90625 2.382812 -2.78125 2.625 -2.53125 C 2.863281 -2.289062 2.984375 -1.921875 2.984375 -1.421875 C 2.984375 -0.929688 2.867188 -0.5625 2.640625 -0.3125 C 2.410156 -0.0703125 2.066406 0.046875 1.609375 0.046875 Z M 1.625 -0.28125 C 1.820312 -0.28125 1.960938 -0.375 2.046875 -0.5625 C 2.128906 -0.757812 2.171875 -1.046875 2.171875 -1.421875 C 2.171875 -1.796875 2.128906 -2.078125 2.046875 -2.265625 C 1.960938 -2.460938 1.816406 -2.5625 1.609375 -2.5625 C 1.410156 -2.5625 1.269531 -2.460938 1.1875 -2.265625 C 1.101562 -2.078125 1.0625 -1.796875 1.0625 -1.421875 C 1.0625 -1.046875 1.101562 -0.757812 1.1875 -0.5625 C 1.269531 -0.375 1.414062 -0.28125 1.625 -0.28125 Z "/>
</g>
</g>
</defs>
<g fill="rgb(34.509804%, 76.862745%, 86.666667%)" fill-opacity="1">
<use xlink:href="#glyph-0-0" x="30" y="25.641602"/>
<use xlink:href="#glyph-0-1" x="34" y="25.641602"/>
<use xlink:href="#glyph-0-2" x="36" y="25.641602"/>
<use xlink:href="#glyph-0-2" x="39" y="25.641602"/>
<use xlink:href="#glyph-0-3" x="42" y="25.641602"/>
<use xlink:href="#glyph-0-4" x="45" y="25.641602"/>
<use xlink:href="#glyph-0-5" x="48" y="25.641602"/>
<use xlink:href="#glyph-0-6" x="51" y="25.641602"/>
</g>
</svg>
