<?xml version="1.0" encoding="UTF-8"?>
<svg xmlns="http://www.w3.org/2000/svg" xmlns:xlink="http://www.w3.org/1999/xlink" width="1920" height="1080" viewBox="0 0 1920 1080">
<defs>
<g>
<g id="glyph-0-0">
<path d="M 1.78125 0.046875 C 1.582031 0.046875 1.421875 0.0078125 1.296875 -0.0625 C 1.179688 -0.144531 1.085938 -0.253906 1.015625 -0.390625 L 0.984375 -0.390625 L 0.890625 0 L 0.09375 0 L 0.09375 -0.203125 L 0.125 -0.203125 C 0.238281 -0.203125 0.335938 -0.222656 0.421875 -0.265625 C 0.503906 -0.304688 0.546875 -0.40625 0.546875 -0.5625 L 0.546875 -3.25 C 0.546875 -3.394531 0.503906 -3.488281 0.421875 -3.53125 C 0.335938 -3.570312 0.238281 -3.59375 0.125 -3.59375 L 0.09375 -3.59375 L 0.09375 -3.796875 L 1.015625 -3.796875 L 1.015625 -2.875 C 1.015625 -2.820312 1.007812 -2.75 1 -2.65625 C 1 -2.570312 1 -2.488281 1 -2.40625 C 1 -2.320312 0.992188 -2.265625 0.984375 -2.234375 L 1.015625 -2.234375 C 1.085938 -2.378906 1.179688 -2.5 1.296875 -2.59375 C 1.421875 -2.6875 1.582031 -2.734375 1.78125 -2.734375 C 2.101562 -2.734375 2.351562 -2.617188 2.53125 -2.390625 C 2.707031 -2.171875 2.796875 -1.820312 2.796875 -1.34375 C 2.796875 -0.863281 2.707031 -0.507812 2.53125 -0.28125 C 2.351562 -0.0625 2.101562 0.046875 1.78125 0.046875 Z M 1.6875 -0.265625 C 1.914062 -0.265625 2.078125 -0.359375 2.171875 -0.546875 C 2.265625 -0.734375 2.3125 -1 2.3125 -1.34375 C 2.3125 -1.707031 2.265625 -1.972656 2.171875 -2.140625 C 2.078125 -2.316406 1.914062 -2.40625 1.6875 -2.40625 C 1.425781 -2.40625 1.25 -2.316406 1.15625 -2.140625 C 1.0625 -1.972656 1.015625 -1.707031 1.015625 -1.34375 C 1.015625 -1 1.0625 -0.734375 1.15625 -0.546875 C 1.25 -0.359375 1.425781 -0.265625 1.6875 -0.265625 Z "/>
</g>
<g id="glyph-0-1">
</g>
<g id="glyph-0-2">
<path d="M 0.328125 -2.125 L 0.328125 -2.421875 L 2.46875 -2.421875 L 2.46875 -2.125 Z M 0.328125 -1.140625 L 0.328125 -1.4375 L 2.46875 -1.4375 L 2.46875 -1.140625 Z "/>
</g>
<g id="glyph-0-3">
<path d="M 0.3125 0 L 0.3125 -0.359375 L 1.140625 -1.328125 C 1.316406 -1.535156 1.457031 -1.710938 1.5625 -1.859375 C 1.664062 -2.015625 1.738281 -2.160156 1.78125 -2.296875 C 1.820312 -2.429688 1.84375 -2.578125 1.84375 -2.734375 C 1.84375 -2.921875 1.800781 -3.070312 1.71875 -3.1875 C 1.644531 -3.3125 1.519531 -3.375 1.34375 -3.375 C 1.1875 -3.375 1.066406 -3.335938 0.984375 -3.265625 C 0.910156 -3.191406 0.859375 -3.097656 0.828125 -2.984375 C 0.804688 -2.878906 0.796875 -2.757812 0.796875 -2.625 C 0.671875 -2.625 0.566406 -2.644531 0.484375 -2.6875 C 0.398438 -2.738281 0.359375 -2.828125 0.359375 -2.953125 C 0.359375 -3.140625 0.441406 -3.296875 0.609375 -3.421875 C 0.773438 -3.554688 1.019531 -3.625 1.34375 -3.625 C 1.65625 -3.625 1.898438 -3.546875 2.078125 -3.390625 C 2.265625 -3.242188 2.359375 -3.039062 2.359375 -2.78125 C 2.359375 -2.550781 2.285156 -2.320312 2.140625 -2.09375 C 1.992188 -1.875 1.785156 -1.617188 1.515625 -1.328125 L 0.671875 -0.40625 L 1.828125 -0.40625 C 1.984375 -0.40625 2.085938 -0.441406 2.140625 -0.515625 C 2.191406 -0.585938 2.226562 -0.675781 2.25 -0.78125 L 2.265625 -0.859375 L 2.484375 -0.859375 L 2.453125 0 Z "/>
</g>
<g id="glyph-0-4">
<path d="M 0.625 0.03125 C 0.539062 0.03125 0.46875 0.0078125 0.40625 -0.03125 C 0.34375 -0.0820312 0.3125 -0.175781 0.3125 -0.3125 C 0.3125 -0.4375 0.34375 -0.519531 0.40625 -0.5625 C 0.46875 -0.613281 0.539062 -0.640625 0.625 -0.640625 C 0.707031 -0.640625 0.78125 -0.613281 0.84375 -0.5625 C 0.90625 -0.519531 0.9375 -0.4375 0.9375 -0.3125 C 0.9375 -0.175781 0.90625 -0.0820312 0.84375 -0.03125 C 0.78125 0.0078125 0.707031 0.03125 0.625 0.03125 Z "/>
</g>
<g id="glyph-0-5">
<path d="M 1.40625 0.046875 C 1.125 0.046875 0.894531 -0.0234375 0.71875 -0.171875 C 0.550781 -0.328125 0.425781 -0.539062 0.34375 -0.8125 C 0.257812 -1.09375 0.21875 -1.421875 0.21875 -1.796875 C 0.21875 -2.160156 0.257812 -2.476562 0.34375 -2.75 C 0.425781 -3.03125 0.550781 -3.242188 0.71875 -3.390625 C 0.894531 -3.546875 1.125 -3.625 1.40625 -3.625 C 1.664062 -3.625 1.878906 -3.546875 2.046875 -3.390625 C 2.222656 -3.242188 2.351562 -3.03125 2.4375 -2.75 C 2.519531 -2.476562 2.5625 -2.160156 2.5625 -1.796875 C 2.5625 -1.421875 2.519531 -1.09375 2.4375 -0.8125 C 2.351562 -0.539062 2.222656 -0.328125 2.046875 -0.171875 C 1.878906 -0.0234375 1.664062 0.046875 1.40625 0.046875 Z M 1.40625 -0.21875 C 1.644531 -0.21875 1.8125 -0.351562 1.90625 -0.625 C 2 -0.90625 2.046875 -1.296875 2.046875 -1.796875 C 2.046875 -2.285156 2 -2.664062 1.90625 -2.9375 C 1.8125 -3.207031 1.644531 -3.34375 1.40625 -3.34375 C 1.164062 -3.34375 0.992188 -3.207031 0.890625 -2.9375 C 0.796875 -2.664062 0.75 -2.285156 0.75 -1.796875 C 0.75 -1.296875 0.796875 -0.90625 0.890625 -0.625 C 0.984375 -0.351562 1.15625 -0.21875 1.40625 -0.21875 Z "/>
</g>
</g>
</defs>
<g fill="rgb(100%, 100%, 100%)" fill-opacity="1">
<use xlink:href="#glyph-0-0" x="30" y="25.344727"/>
<use xlink:href="#glyph-0-1" x="33" y="25.344727"/>
<use xlink:href="#glyph-0-2" x="34" y="25.344727"/>
<use xlink:href="#glyph-0-1" x="37" y="25.344727"/>
<use xlink:href="#glyph-0-3" x="38" y="25.344727"/>
<use xlink:href="#glyph-0-4" x="41" y="25.344727"/>
<use xlink:href="#glyph-0-5" x="42" y="25.344727"/>
<use xlink:href="#glyph-0-5" x="45" y="25.344727"/>
<use xlink:href="#glyph-0-5" x="48" y="25.344727"/>
<use xlink:href="#glyph-0-5" x="51" y="25.344727"/>
</g>
</svg>
