<?xml version="1.0" encoding="UTF-8"?>
<svg xmlns="http://www.w3.org/2000/svg" xmlns:xlink="http://www.w3.org/1999/xlink" width="1920" height="1080" viewBox="0 0 1920 1080">
<defs>
<g>
<g id="glyph-0-0">
<path d="M 1.1875 0.046875 C 1 0.046875 0.832031 0.0078125 0.6875 -0.0625 C 0.539062 -0.144531 0.425781 -0.269531 0.34375 -0.4375 C 0.269531 -0.613281 0.234375 -0.835938 0.234375 -1.109375 C 0.234375 -1.398438 0.269531 -1.628906 0.34375 -1.796875 C 0.425781 -1.972656 0.535156 -2.097656 0.671875 -2.171875 C 0.816406 -2.242188 0.976562 -2.28125 1.15625 -2.28125 C 1.269531 -2.28125 1.382812 -2.265625 1.5 -2.234375 C 1.613281 -2.203125 1.707031 -2.15625 1.78125 -2.09375 C 1.851562 -2.03125 1.890625 -1.953125 1.890625 -1.859375 C 1.890625 -1.753906 1.859375 -1.679688 1.796875 -1.640625 C 1.734375 -1.609375 1.640625 -1.59375 1.515625 -1.59375 C 1.515625 -1.71875 1.488281 -1.828125 1.4375 -1.921875 C 1.394531 -2.015625 1.300781 -2.0625 1.15625 -2.0625 C 1.050781 -2.0625 0.957031 -2.035156 0.875 -1.984375 C 0.800781 -1.929688 0.742188 -1.832031 0.703125 -1.6875 C 0.660156 -1.550781 0.640625 -1.359375 0.640625 -1.109375 C 0.640625 -0.816406 0.6875 -0.597656 0.78125 -0.453125 C 0.882812 -0.304688 1.046875 -0.234375 1.265625 -0.234375 C 1.390625 -0.234375 1.5 -0.257812 1.59375 -0.3125 C 1.695312 -0.363281 1.769531 -0.429688 1.8125 -0.515625 C 1.863281 -0.484375 1.890625 -0.429688 1.890625 -0.359375 C 1.890625 -0.296875 1.863281 -0.234375 1.8125 -0.171875 C 1.757812 -0.109375 1.679688 -0.0546875 1.578125 -0.015625 C 1.472656 0.0234375 1.34375 0.046875 1.1875 0.046875 Z "/>
</g>
<g id="glyph-0-1">
<path d="M 0.890625 0 L 0.890625 -0.171875 L 1.015625 -0.171875 C 1.109375 -0.171875 1.1875 -0.1875 1.25 -0.21875 C 1.320312 -0.257812 1.359375 -0.34375 1.359375 -0.46875 L 1.359375 -0.8125 L 0.078125 -0.8125 L 0.078125 -0.984375 L 1.359375 -2.984375 L 1.75 -2.984375 L 1.75 -1.046875 L 2.28125 -1.046875 L 2.28125 -0.8125 L 1.75 -0.8125 L 1.75 -0.46875 C 1.75 -0.34375 1.78125 -0.257812 1.84375 -0.21875 C 1.914062 -0.1875 2 -0.171875 2.09375 -0.171875 L 2.15625 -0.171875 L 2.15625 0 Z M 0.375 -1.046875 L 1.359375 -1.046875 L 1.359375 -1.828125 C 1.359375 -1.898438 1.359375 -1.988281 1.359375 -2.09375 C 1.359375 -2.195312 1.359375 -2.300781 1.359375 -2.40625 C 1.367188 -2.507812 1.378906 -2.601562 1.390625 -2.6875 C 1.367188 -2.65625 1.34375 -2.613281 1.3125 -2.5625 C 1.28125 -2.507812 1.242188 -2.445312 1.203125 -2.375 C 1.171875 -2.3125 1.132812 -2.25 1.09375 -2.1875 C 1.0625 -2.132812 1.035156 -2.085938 1.015625 -2.046875 Z "/>
</g>
</g>
</defs>
<g fill="rgb(96.862745%, 85.098039%, 43.529412%)" fill-opacity="1">
<use xlink:href="#glyph-0-0" x="30" y="24.454102"/>
<use xlink:href="#glyph-0-1" x="32" y="24.454102"/>
</g>
</svg>
