<?xml version="1.0" encoding="UTF-8"?>
<svg xmlns="http://www.w3.org/2000/svg" xmlns:xlink="http://www.w3.org/1999/xlink" width="1920" height="1080" viewBox="0 0 1920 1080">
<defs>
<g>
<g id="glyph-0-0">
<path d="M 1.25 1.203125 L 1.25 -3.796875 L 1.546875 -3.796875 L 1.546875 1.203125 Z "/>
</g>
<g id="glyph-0-1">
<path d="M 0.140625 0 L 0.140625 -0.203125 L 0.203125 -0.203125 C 0.316406 -0.203125 0.410156 -0.222656 0.484375 -0.265625 C 0.566406 -0.304688 0.609375 -0.40625 0.609375 -0.5625 L 0.609375 -2.4375 L 0.15625 -2.4375 L 0.15625 -2.6875 L 0.609375 -2.6875 L 0.609375 -2.9375 C 0.609375 -3.226562 0.6875 -3.453125 0.84375 -3.609375 C 1 -3.765625 1.21875 -3.84375 1.5 -3.84375 C 1.757812 -3.84375 1.9375 -3.8125 2.03125 -3.75 C 2.132812 -3.6875 2.1875 -3.601562 2.1875 -3.5 C 2.1875 -3.40625 2.148438 -3.332031 2.078125 -3.28125 C 2.003906 -3.238281 1.90625 -3.21875 1.78125 -3.21875 C 1.78125 -3.320312 1.753906 -3.414062 1.703125 -3.5 C 1.660156 -3.582031 1.578125 -3.625 1.453125 -3.625 C 1.304688 -3.625 1.207031 -3.566406 1.15625 -3.453125 C 1.101562 -3.347656 1.078125 -3.1875 1.078125 -2.96875 L 1.078125 -2.6875 L 1.78125 -2.6875 L 1.78125 -2.4375 L 1.078125 -2.4375 L 1.078125 -0.5625 C 1.078125 -0.40625 1.113281 -0.304688 1.1875 -0.265625 C 1.269531 -0.222656 1.367188 -0.203125 1.484375 -0.203125 L 1.6875 -0.203125 L 1.6875 0 Z "/>
</g>
<g id="glyph-0-2">
<path d="M 1.5625 0.640625 C 1.257812 0.515625 1.015625 0.351562 0.828125 0.15625 C 0.640625 -0.03125 0.5 -0.265625 0.40625 -0.546875 C 0.320312 -0.835938 0.28125 -1.179688 0.28125 -1.578125 C 0.28125 -1.984375 0.320312 -2.328125 0.40625 -2.609375 C 0.5 -2.898438 0.640625 -3.140625 0.828125 -3.328125 C 1.015625 -3.523438 1.257812 -3.679688 1.5625 -3.796875 L 1.5625 -3.578125 C 1.332031 -3.441406 1.164062 -3.265625 1.0625 -3.046875 C 0.957031 -2.835938 0.890625 -2.609375 0.859375 -2.359375 C 0.828125 -2.109375 0.8125 -1.847656 0.8125 -1.578125 C 0.8125 -1.316406 0.828125 -1.0625 0.859375 -0.8125 C 0.890625 -0.5625 0.957031 -0.328125 1.0625 -0.109375 C 1.164062 0.0976562 1.332031 0.269531 1.5625 0.40625 Z "/>
</g>
<g id="glyph-0-3">
<path d="M 1.421875 0.046875 C 1.191406 0.046875 0.988281 0 0.8125 -0.09375 C 0.644531 -0.1875 0.515625 -0.332031 0.421875 -0.53125 C 0.328125 -0.726562 0.28125 -0.992188 0.28125 -1.328125 C 0.28125 -1.679688 0.328125 -1.957031 0.421875 -2.15625 C 0.515625 -2.363281 0.644531 -2.507812 0.8125 -2.59375 C 0.988281 -2.6875 1.179688 -2.734375 1.390625 -2.734375 C 1.523438 -2.734375 1.660156 -2.710938 1.796875 -2.671875 C 1.929688 -2.640625 2.039062 -2.582031 2.125 -2.5 C 2.21875 -2.425781 2.265625 -2.332031 2.265625 -2.21875 C 2.265625 -2.101562 2.222656 -2.019531 2.140625 -1.96875 C 2.066406 -1.925781 1.957031 -1.90625 1.8125 -1.90625 C 1.8125 -2.0625 1.78125 -2.195312 1.71875 -2.3125 C 1.664062 -2.425781 1.554688 -2.484375 1.390625 -2.484375 C 1.265625 -2.484375 1.15625 -2.445312 1.0625 -2.375 C 0.96875 -2.3125 0.894531 -2.195312 0.84375 -2.03125 C 0.789062 -1.863281 0.765625 -1.628906 0.765625 -1.328125 C 0.765625 -0.972656 0.820312 -0.707031 0.9375 -0.53125 C 1.050781 -0.363281 1.242188 -0.28125 1.515625 -0.28125 C 1.671875 -0.28125 1.804688 -0.3125 1.921875 -0.375 C 2.035156 -0.4375 2.125 -0.519531 2.1875 -0.625 C 2.238281 -0.582031 2.265625 -0.519531 2.265625 -0.4375 C 2.265625 -0.351562 2.234375 -0.273438 2.171875 -0.203125 C 2.109375 -0.128906 2.015625 -0.0664062 1.890625 -0.015625 C 1.765625 0.0234375 1.609375 0.046875 1.421875 0.046875 Z "/>
</g>
<g id="glyph-0-4">
<path d="M 0.15625 0.40625 C 0.382812 0.269531 0.550781 0.0976562 0.65625 -0.109375 C 0.769531 -0.328125 0.84375 -0.5625 0.875 -0.8125 C 0.90625 -1.0625 0.921875 -1.316406 0.921875 -1.578125 C 0.921875 -1.847656 0.90625 -2.109375 0.875 -2.359375 C 0.84375 -2.609375 0.769531 -2.835938 0.65625 -3.046875 C 0.550781 -3.265625 0.382812 -3.441406 0.15625 -3.578125 L 0.15625 -3.796875 C 0.46875 -3.679688 0.71875 -3.523438 0.90625 -3.328125 C 1.09375 -3.140625 1.226562 -2.898438 1.3125 -2.609375 C 1.394531 -2.328125 1.4375 -1.984375 1.4375 -1.578125 C 1.4375 -1.179688 1.394531 -0.835938 1.3125 -0.546875 C 1.226562 -0.265625 1.09375 -0.03125 0.90625 0.15625 C 0.71875 0.351562 0.46875 0.515625 0.15625 0.640625 Z "/>
</g>
<g id="glyph-0-5">
</g>
<g id="glyph-0-6">
<path d="M 0.328125 -2.125 L 0.328125 -2.421875 L 2.46875 -2.421875 L 2.46875 -2.125 Z M 0.328125 -1.140625 L 0.328125 -1.4375 L 2.46875 -1.4375 L 2.46875 -1.140625 Z "/>
</g>
<g id="glyph-0-7">
<path d="M 1.40625 0.046875 C 1.125 0.046875 0.894531 -0.0234375 0.71875 -0.171875 C 0.550781 -0.328125 0.425781 -0.539062 0.34375 -0.8125 C 0.257812 -1.09375 0.21875 -1.421875 0.21875 -1.796875 C 0.21875 -2.160156 0.257812 -2.476562 0.34375 -2.75 C 0.425781 -3.03125 0.550781 -3.242188 0.71875 -3.390625 C 0.894531 -3.546875 1.125 -3.625 1.40625 -3.625 C 1.664062 -3.625 1.878906 -3.546875 2.046875 -3.390625 C 2.222656 -3.242188 2.351562 -3.03125 2.4375 -2.75 C 2.519531 -2.476562 2.5625 -2.160156 2.5625 -1.796875 C 2.5625 -1.421875 2.519531 -1.09375 2.4375 -0.8125 C 2.351562 -0.539062 2.222656 -0.328125 2.046875 -0.171875 C 1.878906 -0.0234375 1.664062 0.046875 1.40625 0.046875 Z M 1.40625 -0.21875 C 1.644531 -0.21875 1.8125 -0.351562 1.90625 -0.625 C 2 -0.90625 2.046875 -1.296875 2.046875 -1.796875 C 2.046875 -2.285156 2 -2.664062 1.90625 -2.9375 C 1.8125 -3.207031 1.644531 -3.34375 1.40625 -3.34375 C 1.164062 -3.34375 0.992188 -3.207031 0.890625 -2.9375 C 0.796875 -2.664062 0.75 -2.285156 0.75 -1.796875 C 0.75 -1.296875 0.796875 -0.90625 0.890625 -0.625 C 0.984375 -0.351562 1.15625 -0.21875 1.40625 -0.21875 Z "/>
</g>
<g id="glyph-0-8">
<path d="M 0.625 0.03125 C 0.539062 0.03125 0.46875 0.0078125 0.40625 -0.03125 C 0.34375 -0.0820312 0.3125 -0.175781 0.3125 -0.3125 C 0.3125 -0.4375 0.34375 -0.519531 0.40625 -0.5625 C 0.46875 -0.613281 0.539062 -0.640625 0.625 -0.640625 C 0.707031 -0.640625 0.78125 -0.613281 0.84375 -0.5625 C 0.90625 -0.519531 0.9375 -0.4375 0.9375 -0.3125 C 0.9375 -0.175781 0.90625 -0.0820312 0.84375 -0.03125 C 0.78125 0.0078125 0.707031 0.03125 0.625 0.03125 Z "/>
</g>
<g id="glyph-0-9">
<path d="M 0.875 0 L 2.0625 -3.171875 L 0.8125 -3.171875 C 0.632812 -3.171875 0.539062 -3.085938 0.53125 -2.921875 L 0.5 -2.671875 L 0.296875 -2.671875 L 0.3125 -3.5625 L 2.5625 -3.5625 L 2.5625 -3.421875 L 1.328125 0 Z "/>
</g>
<g id="glyph-0-10">
<path d="M 1.140625 0.0625 C 0.953125 0.0625 0.800781 0.0390625 0.6875 0 C 0.582031 -0.0507812 0.507812 -0.109375 0.46875 -0.171875 C 0.425781 -0.234375 0.40625 -0.300781 0.40625 -0.375 C 0.40625 -0.4375 0.421875 -0.488281 0.453125 -0.53125 C 0.484375 -0.570312 0.519531 -0.597656 0.5625 -0.609375 C 0.601562 -0.503906 0.671875 -0.410156 0.765625 -0.328125 C 0.859375 -0.253906 0.984375 -0.21875 1.140625 -0.21875 C 1.421875 -0.21875 1.625 -0.335938 1.75 -0.578125 C 1.882812 -0.828125 1.957031 -1.207031 1.96875 -1.71875 C 1.894531 -1.625 1.796875 -1.539062 1.671875 -1.46875 C 1.554688 -1.40625 1.410156 -1.375 1.234375 -1.375 C 0.953125 -1.375 0.71875 -1.457031 0.53125 -1.625 C 0.34375 -1.800781 0.25 -2.054688 0.25 -2.390625 C 0.25 -2.628906 0.289062 -2.84375 0.375 -3.03125 C 0.46875 -3.21875 0.59375 -3.363281 0.75 -3.46875 C 0.90625 -3.570312 1.097656 -3.625 1.328125 -3.625 C 1.554688 -3.625 1.753906 -3.5625 1.921875 -3.4375 C 2.097656 -3.320312 2.234375 -3.140625 2.328125 -2.890625 C 2.429688 -2.648438 2.484375 -2.332031 2.484375 -1.9375 C 2.484375 -1.675781 2.457031 -1.425781 2.40625 -1.1875 C 2.363281 -0.945312 2.285156 -0.734375 2.171875 -0.546875 C 2.066406 -0.359375 1.925781 -0.207031 1.75 -0.09375 C 1.582031 0.0078125 1.378906 0.0625 1.140625 0.0625 Z M 1.34375 -1.671875 C 1.507812 -1.671875 1.644531 -1.710938 1.75 -1.796875 C 1.863281 -1.878906 1.941406 -1.972656 1.984375 -2.078125 C 1.972656 -2.523438 1.90625 -2.847656 1.78125 -3.046875 C 1.664062 -3.242188 1.515625 -3.34375 1.328125 -3.34375 C 1.148438 -3.34375 1.007812 -3.265625 0.90625 -3.109375 C 0.8125 -2.953125 0.765625 -2.726562 0.765625 -2.4375 C 0.765625 -2.164062 0.8125 -1.96875 0.90625 -1.84375 C 1.007812 -1.726562 1.15625 -1.671875 1.34375 -1.671875 Z "/>
</g>
</g>
</defs>
<g fill="rgb(100%, 100%, 100%)" fill-opacity="1">
<use xlink:href="#glyph-0-0" x="30" y="25.344727"/>
<use xlink:href="#glyph-0-1" x="33" y="25.344727"/>
<use xlink:href="#glyph-0-2" x="35" y="25.344727"/>
<use xlink:href="#glyph-0-3" x="37" y="25.344727"/>
<use xlink:href="#glyph-0-4" x="39" y="25.344727"/>
<use xlink:href="#glyph-0-0" x="41" y="25.344727"/>
<use xlink:href="#glyph-0-5" x="44" y="25.344727"/>
<use xlink:href="#glyph-0-6" x="45" y="25.344727"/>
<use xlink:href="#glyph-0-5" x="48" y="25.344727"/>
<use xlink:href="#glyph-0-7" x="49" y="25.344727"/>
<use xlink:href="#glyph-0-8" x="52" y="25.344727"/>
<use xlink:href="#glyph-0-7" x="53" y="25.344727"/>
<use xlink:href="#glyph-0-9" x="56" y="25.344727"/>
<use xlink:href="#glyph-0-9" x="59" y="25.344727"/>
<use xlink:href="#glyph-0-10" x="62" y="25.344727"/>
</g>
</svg>
