<?xml version="1.0" encoding="UTF-8"?>
<svg xmlns="http://www.w3.org/2000/svg" xmlns:xlink="http://www.w3.org/1999/xlink" width="1920" height="1080" viewBox="0 0 1920 1080">
<defs>
<g>
<g id="glyph-0-0">
<path d="M 0.125 0 L 0.125 -0.1875 L 0.1875 -0.1875 C 0.28125 -0.1875 0.359375 -0.203125 0.421875 -0.234375 C 0.492188 -0.273438 0.53125 -0.363281 0.53125 -0.5 L 0.53125 -1.890625 C 0.53125 -2.015625 0.492188 -2.09375 0.421875 -2.125 C 0.359375 -2.164062 0.28125 -2.1875 0.1875 -2.1875 L 0.171875 -2.1875 L 0.171875 -2.375 L 0.859375 -2.375 L 0.921875 -2.015625 L 0.9375 -2.015625 C 1.03125 -2.179688 1.128906 -2.289062 1.234375 -2.34375 C 1.347656 -2.394531 1.472656 -2.421875 1.609375 -2.421875 C 1.753906 -2.421875 1.882812 -2.390625 2 -2.328125 C 2.113281 -2.265625 2.203125 -2.160156 2.265625 -2.015625 L 2.296875 -2.015625 C 2.378906 -2.179688 2.476562 -2.289062 2.59375 -2.34375 C 2.71875 -2.394531 2.847656 -2.421875 2.984375 -2.421875 C 3.210938 -2.421875 3.390625 -2.351562 3.515625 -2.21875 C 3.648438 -2.082031 3.71875 -1.859375 3.71875 -1.546875 L 3.71875 -0.5 C 3.71875 -0.363281 3.75 -0.273438 3.8125 -0.234375 C 3.875 -0.203125 3.957031 -0.1875 4.0625 -0.1875 L 4.0625 0 L 3.296875 0 L 3.296875 -1.53125 C 3.296875 -1.71875 3.257812 -1.863281 3.1875 -1.96875 C 3.125 -2.082031 3.003906 -2.140625 2.828125 -2.140625 C 2.710938 -2.140625 2.617188 -2.109375 2.546875 -2.046875 C 2.472656 -1.984375 2.421875 -1.898438 2.390625 -1.796875 C 2.359375 -1.703125 2.34375 -1.597656 2.34375 -1.484375 L 2.34375 -0.5 C 2.34375 -0.363281 2.375 -0.273438 2.4375 -0.234375 C 2.5 -0.203125 2.582031 -0.1875 2.6875 -0.1875 L 2.6875 0 L 1.921875 0 L 1.921875 -1.53125 C 1.921875 -1.71875 1.882812 -1.863281 1.8125 -1.96875 C 1.75 -2.082031 1.628906 -2.140625 1.453125 -2.140625 C 1.328125 -2.140625 1.222656 -2.101562 1.140625 -2.03125 C 1.066406 -1.96875 1.015625 -1.878906 0.984375 -1.765625 C 0.953125 -1.660156 0.9375 -1.546875 0.9375 -1.421875 L 0.9375 -0.484375 C 0.9375 -0.347656 0.972656 -0.265625 1.046875 -0.234375 C 1.117188 -0.203125 1.203125 -0.1875 1.296875 -0.1875 L 1.3125 -0.1875 L 1.3125 0 Z "/>
</g>
<g id="glyph-0-1">
</g>
<g id="glyph-0-2">
<path d="M 0.28125 -1.890625 L 0.28125 -2.15625 L 2.1875 -2.15625 L 2.1875 -1.890625 Z M 0.28125 -1.015625 L 0.28125 -1.28125 L 2.1875 -1.28125 L 2.1875 -1.015625 Z "/>
</g>
<g id="glyph-0-3">
<path d="M 1.390625 0.5625 C 1.117188 0.457031 0.898438 0.316406 0.734375 0.140625 C 0.566406 -0.0234375 0.441406 -0.234375 0.359375 -0.484375 C 0.285156 -0.742188 0.25 -1.050781 0.25 -1.40625 C 0.25 -1.757812 0.285156 -2.0625 0.359375 -2.3125 C 0.441406 -2.570312 0.566406 -2.785156 0.734375 -2.953125 C 0.898438 -3.128906 1.117188 -3.269531 1.390625 -3.375 L 1.390625 -3.171875 C 1.191406 -3.046875 1.039062 -2.890625 0.9375 -2.703125 C 0.84375 -2.523438 0.78125 -2.320312 0.75 -2.09375 C 0.726562 -1.875 0.71875 -1.644531 0.71875 -1.40625 C 0.71875 -1.175781 0.726562 -0.945312 0.75 -0.71875 C 0.78125 -0.488281 0.84375 -0.28125 0.9375 -0.09375 C 1.039062 0.0820312 1.191406 0.234375 1.390625 0.359375 Z "/>
</g>
<g id="glyph-0-4">
<path d="M 0.125 0 L 0.125 -0.1875 L 0.171875 -0.1875 C 0.273438 -0.1875 0.363281 -0.203125 0.4375 -0.234375 C 0.507812 -0.273438 0.546875 -0.363281 0.546875 -0.5 L 0.546875 -2.171875 L 0.140625 -2.171875 L 0.140625 -2.375 L 0.546875 -2.375 L 0.546875 -2.59375 C 0.546875 -2.863281 0.613281 -3.066406 0.75 -3.203125 C 0.894531 -3.347656 1.085938 -3.421875 1.328125 -3.421875 C 1.554688 -3.421875 1.71875 -3.390625 1.8125 -3.328125 C 1.90625 -3.273438 1.953125 -3.203125 1.953125 -3.109375 C 1.953125 -3.023438 1.914062 -2.960938 1.84375 -2.921875 C 1.78125 -2.878906 1.691406 -2.859375 1.578125 -2.859375 C 1.578125 -2.941406 1.554688 -3.019531 1.515625 -3.09375 C 1.472656 -3.175781 1.398438 -3.21875 1.296875 -3.21875 C 1.160156 -3.21875 1.066406 -3.164062 1.015625 -3.0625 C 0.972656 -2.96875 0.953125 -2.828125 0.953125 -2.640625 L 0.953125 -2.375 L 1.578125 -2.375 L 1.578125 -2.171875 L 0.953125 -2.171875 L 0.953125 -0.5 C 0.953125 -0.363281 0.988281 -0.273438 1.0625 -0.234375 C 1.132812 -0.203125 1.222656 -0.1875 1.328125 -0.1875 L 1.484375 -0.1875 L 1.484375 0 Z "/>
</g>
<g id="glyph-0-5">
<path d="M 1.578125 0.046875 C 1.398438 0.046875 1.257812 0.0078125 1.15625 -0.0625 C 1.050781 -0.132812 0.960938 -0.226562 0.890625 -0.34375 L 0.875 -0.34375 L 0.796875 0 L 0.078125 0 L 0.078125 -0.1875 L 0.109375 -0.1875 C 0.210938 -0.1875 0.300781 -0.203125 0.375 -0.234375 C 0.445312 -0.273438 0.484375 -0.363281 0.484375 -0.5 L 0.484375 -2.890625 C 0.484375 -3.015625 0.445312 -3.09375 0.375 -3.125 C 0.300781 -3.164062 0.210938 -3.1875 0.109375 -3.1875 L 0.078125 -3.1875 L 0.078125 -3.375 L 0.890625 -3.375 L 0.890625 -2.5625 C 0.890625 -2.507812 0.890625 -2.441406 0.890625 -2.359375 C 0.890625 -2.285156 0.890625 -2.210938 0.890625 -2.140625 C 0.890625 -2.066406 0.882812 -2.015625 0.875 -1.984375 L 0.890625 -1.984375 C 0.960938 -2.117188 1.050781 -2.222656 1.15625 -2.296875 C 1.257812 -2.378906 1.398438 -2.421875 1.578125 -2.421875 C 1.867188 -2.421875 2.09375 -2.320312 2.25 -2.125 C 2.40625 -1.925781 2.484375 -1.613281 2.484375 -1.1875 C 2.484375 -0.757812 2.40625 -0.445312 2.25 -0.25 C 2.09375 -0.0507812 1.867188 0.046875 1.578125 0.046875 Z M 1.5 -0.234375 C 1.695312 -0.234375 1.835938 -0.316406 1.921875 -0.484375 C 2.003906 -0.648438 2.046875 -0.890625 2.046875 -1.203125 C 2.046875 -1.515625 2.003906 -1.75 1.921875 -1.90625 C 1.835938 -2.0625 1.695312 -2.140625 1.5 -2.140625 C 1.269531 -2.140625 1.109375 -2.0625 1.015625 -1.90625 C 0.929688 -1.75 0.890625 -1.507812 0.890625 -1.1875 C 0.890625 -0.882812 0.929688 -0.648438 1.015625 -0.484375 C 1.109375 -0.316406 1.269531 -0.234375 1.5 -0.234375 Z "/>
</g>
<g id="glyph-0-6">
<path d="M 0.140625 0.359375 C 0.347656 0.234375 0.5 0.0820312 0.59375 -0.09375 C 0.6875 -0.28125 0.75 -0.488281 0.78125 -0.71875 C 0.8125 -0.945312 0.828125 -1.175781 0.828125 -1.40625 C 0.828125 -1.644531 0.8125 -1.875 0.78125 -2.09375 C 0.75 -2.320312 0.6875 -2.523438 0.59375 -2.703125 C 0.5 -2.890625 0.347656 -3.046875 0.140625 -3.171875 L 0.140625 -3.375 C 0.410156 -3.269531 0.628906 -3.128906 0.796875 -2.953125 C 0.960938 -2.785156 1.082031 -2.570312 1.15625 -2.3125 C 1.238281 -2.0625 1.28125 -1.757812 1.28125 -1.40625 C 1.28125 -1.050781 1.238281 -0.742188 1.15625 -0.484375 C 1.082031 -0.234375 0.960938 -0.0234375 0.796875 0.140625 C 0.628906 0.316406 0.410156 0.457031 0.140625 0.5625 Z "/>
</g>
<g id="glyph-0-7">
<path d="M 0.109375 -1.046875 L 0.109375 -1.375 L 1.265625 -1.375 L 1.265625 -1.046875 Z "/>
</g>
<g id="glyph-0-8">
<path d="M 0.90625 0.046875 C 0.707031 0.046875 0.539062 -0.0078125 0.40625 -0.125 C 0.28125 -0.238281 0.21875 -0.421875 0.21875 -0.671875 C 0.21875 -0.898438 0.300781 -1.070312 0.46875 -1.1875 C 0.632812 -1.300781 0.890625 -1.363281 1.234375 -1.375 L 1.609375 -1.390625 L 1.609375 -1.65625 C 1.609375 -1.757812 1.597656 -1.851562 1.578125 -1.9375 C 1.554688 -2.019531 1.515625 -2.082031 1.453125 -2.125 C 1.398438 -2.175781 1.3125 -2.203125 1.1875 -2.203125 C 1.070312 -2.203125 0.984375 -2.179688 0.921875 -2.140625 C 0.867188 -2.097656 0.832031 -2.039062 0.8125 -1.96875 C 0.789062 -1.894531 0.78125 -1.8125 0.78125 -1.71875 C 0.65625 -1.71875 0.5625 -1.738281 0.5 -1.78125 C 0.4375 -1.820312 0.40625 -1.894531 0.40625 -2 C 0.40625 -2.101562 0.441406 -2.1875 0.515625 -2.25 C 0.585938 -2.3125 0.679688 -2.351562 0.796875 -2.375 C 0.921875 -2.40625 1.054688 -2.421875 1.203125 -2.421875 C 1.472656 -2.421875 1.675781 -2.363281 1.8125 -2.25 C 1.945312 -2.132812 2.015625 -1.9375 2.015625 -1.65625 L 2.015625 -0.5 C 2.015625 -0.375 2.035156 -0.289062 2.078125 -0.25 C 2.117188 -0.207031 2.191406 -0.1875 2.296875 -0.1875 L 2.3125 -0.1875 L 2.3125 0 L 1.703125 0 L 1.640625 -0.375 L 1.609375 -0.375 C 1.546875 -0.289062 1.484375 -0.21875 1.421875 -0.15625 C 1.359375 -0.09375 1.285156 -0.0390625 1.203125 0 C 1.128906 0.03125 1.03125 0.046875 0.90625 0.046875 Z M 1.015625 -0.234375 C 1.191406 -0.234375 1.332031 -0.285156 1.4375 -0.390625 C 1.550781 -0.503906 1.609375 -0.65625 1.609375 -0.84375 L 1.609375 -1.203125 L 1.3125 -1.1875 C 1.0625 -1.175781 0.890625 -1.125 0.796875 -1.03125 C 0.703125 -0.945312 0.65625 -0.816406 0.65625 -0.640625 C 0.65625 -0.367188 0.773438 -0.234375 1.015625 -0.234375 Z "/>
</g>
<g id="glyph-0-9">
<path d="M 0 0.53125 L 1.015625 -3.375 L 1.28125 -3.375 L 0.265625 0.53125 Z "/>
</g>
</g>
</defs>
<g fill="rgb(86.666667%, 86.666667%, 86.666667%)" fill-opacity="1">
<use xlink:href="#glyph-0-0" x="30" y="24.750977"/>
<use xlink:href="#glyph-0-1" x="34" y="24.750977"/>
<use xlink:href="#glyph-0-2" x="35" y="24.750977"/>
<use xlink:href="#glyph-0-1" x="37" y="24.750977"/>
<use xlink:href="#glyph-0-3" x="38" y="24.750977"/>
<use xlink:href="#glyph-0-4" x="40" y="24.750977"/>
<use xlink:href="#glyph-0-3" x="42" y="24.750977"/>
<use xlink:href="#glyph-0-5" x="44" y="24.750977"/>
<use xlink:href="#glyph-0-6" x="47" y="24.750977"/>
<use xlink:href="#glyph-0-1" x="49" y="24.750977"/>
<use xlink:href="#glyph-0-7" x="50" y="24.750977"/>
<use xlink:href="#glyph-0-1" x="51" y="24.750977"/>
<use xlink:href="#glyph-0-4" x="52" y="24.750977"/>
<use xlink:href="#glyph-0-3" x="54" y="24.750977"/>
<use xlink:href="#glyph-0-8" x="56" y="24.750977"/>
<use xlink:href="#glyph-0-6" x="59" y="24.750977"/>
<use xlink:href="#glyph-0-6" x="61" y="24.750977"/>
<use xlink:href="#glyph-0-1" x="63" y="24.750977"/>
<use xlink:href="#glyph-0-9" x="64" y="24.750977"/>
<use xlink:href="#glyph-0-1" x="65" y="24.750977"/>
<use xlink:href="#glyph-0-3" x="66" y="24.750977"/>
<use xlink:href="#glyph-0-5" x="68" y="24.750977"/>
<use xlink:href="#glyph-0-1" x="71" y="24.750977"/>
<use xlink:href="#glyph-0-7" x="72" y="24.750977"/>
<use xlink:href="#glyph-0-1" x="73" y="24.750977"/>
<use xlink:href="#glyph-0-8" x="74" y="24.750977"/>
<use xlink:href="#glyph-0-6" x="77" y="24.750977"/>
</g>
</svg>
