<?xml version="1.0" encoding="UTF-8"?>
<svg xmlns="http://www.w3.org/2000/svg" xmlns:xlink="http://www.w3.org/1999/xlink" width="1920" height="1080" viewBox="0 0 1920 1080">
<defs>
<g>
<g id="glyph-0-0">
<path d="M 0.171875 0 L 0.171875 -0.328125 L 0.390625 -0.328125 C 0.492188 -0.328125 0.578125 -0.351562 0.640625 -0.40625 C 0.703125 -0.457031 0.734375 -0.546875 0.734375 -0.671875 L 0.734375 -3.65625 C 0.734375 -3.820312 0.695312 -3.925781 0.625 -3.96875 C 0.5625 -4.007812 0.476562 -4.03125 0.375 -4.03125 L 0.171875 -4.03125 L 0.171875 -4.359375 L 3.5625 -4.359375 L 3.59375 -3.234375 L 3.171875 -3.234375 L 3.140625 -3.53125 C 3.117188 -3.675781 3.070312 -3.785156 3 -3.859375 C 2.9375 -3.941406 2.828125 -3.984375 2.671875 -3.984375 L 1.703125 -3.984375 L 1.703125 -2.46875 L 3.15625 -2.46875 L 3.15625 -2.09375 L 1.703125 -2.09375 L 1.703125 -0.375 L 2.828125 -0.375 C 2.992188 -0.375 3.113281 -0.414062 3.1875 -0.5 C 3.257812 -0.59375 3.304688 -0.707031 3.328125 -0.84375 L 3.375 -1.125 L 3.796875 -1.125 L 3.75 0 Z "/>
</g>
<g id="glyph-0-1">
<path d="M 1.40625 0.0625 C 0.976562 0.0625 0.671875 0 0.484375 -0.125 C 0.296875 -0.257812 0.203125 -0.429688 0.203125 -0.640625 C 0.203125 -0.804688 0.253906 -0.921875 0.359375 -0.984375 C 0.472656 -1.054688 0.597656 -1.09375 0.734375 -1.09375 C 0.734375 -0.570312 0.960938 -0.3125 1.421875 -0.3125 C 1.628906 -0.3125 1.78125 -0.351562 1.875 -0.4375 C 1.96875 -0.519531 2.015625 -0.625 2.015625 -0.75 C 2.015625 -0.875 1.957031 -0.972656 1.84375 -1.046875 C 1.738281 -1.128906 1.550781 -1.21875 1.28125 -1.3125 C 1.039062 -1.382812 0.84375 -1.46875 0.6875 -1.5625 C 0.539062 -1.65625 0.429688 -1.765625 0.359375 -1.890625 C 0.285156 -2.015625 0.25 -2.175781 0.25 -2.375 C 0.25 -2.695312 0.367188 -2.9375 0.609375 -3.09375 C 0.847656 -3.257812 1.164062 -3.34375 1.5625 -3.34375 C 1.925781 -3.34375 2.191406 -3.28125 2.359375 -3.15625 C 2.523438 -3.039062 2.609375 -2.910156 2.609375 -2.765625 C 2.609375 -2.492188 2.414062 -2.359375 2.03125 -2.359375 C 2.03125 -2.554688 1.976562 -2.707031 1.875 -2.8125 C 1.769531 -2.925781 1.632812 -2.984375 1.46875 -2.984375 C 1.3125 -2.984375 1.1875 -2.945312 1.09375 -2.875 C 1.007812 -2.8125 0.96875 -2.722656 0.96875 -2.609375 C 0.96875 -2.472656 1.019531 -2.367188 1.125 -2.296875 C 1.238281 -2.222656 1.429688 -2.140625 1.703125 -2.046875 C 1.929688 -1.972656 2.117188 -1.890625 2.265625 -1.796875 C 2.421875 -1.710938 2.535156 -1.609375 2.609375 -1.484375 C 2.691406 -1.359375 2.734375 -1.195312 2.734375 -1 C 2.734375 -0.664062 2.617188 -0.40625 2.390625 -0.21875 C 2.160156 -0.03125 1.832031 0.0625 1.40625 0.0625 Z "/>
</g>
<g id="glyph-0-2">
<path d="M 1.546875 0.0625 C 1.234375 0.0625 0.992188 -0.00390625 0.828125 -0.140625 C 0.671875 -0.285156 0.59375 -0.539062 0.59375 -0.90625 L 0.59375 -2.859375 L 0.125 -2.859375 L 0.125 -3.171875 C 0.257812 -3.171875 0.378906 -3.195312 0.484375 -3.25 C 0.585938 -3.300781 0.671875 -3.359375 0.734375 -3.421875 C 0.859375 -3.554688 0.953125 -3.757812 1.015625 -4.03125 L 1.515625 -4.03125 L 1.515625 -3.28125 L 2.296875 -3.28125 L 2.296875 -2.859375 L 1.515625 -2.859375 L 1.515625 -0.96875 C 1.515625 -0.78125 1.546875 -0.644531 1.609375 -0.5625 C 1.671875 -0.476562 1.773438 -0.4375 1.921875 -0.4375 C 2.003906 -0.4375 2.082031 -0.441406 2.15625 -0.453125 C 2.226562 -0.460938 2.296875 -0.472656 2.359375 -0.484375 L 2.359375 -0.09375 C 2.285156 -0.0625 2.175781 -0.03125 2.03125 0 C 1.894531 0.0390625 1.734375 0.0625 1.546875 0.0625 Z "/>
</g>
<g id="glyph-0-3">
<path d="M 1.234375 0.0625 C 0.960938 0.0625 0.734375 -0.015625 0.546875 -0.171875 C 0.367188 -0.335938 0.28125 -0.59375 0.28125 -0.9375 C 0.28125 -1.257812 0.390625 -1.5 0.609375 -1.65625 C 0.835938 -1.820312 1.179688 -1.914062 1.640625 -1.9375 L 2.140625 -1.953125 L 2.140625 -2.28125 C 2.140625 -2.507812 2.109375 -2.679688 2.046875 -2.796875 C 1.992188 -2.921875 1.882812 -2.984375 1.71875 -2.984375 C 1.5625 -2.984375 1.453125 -2.925781 1.390625 -2.8125 C 1.328125 -2.695312 1.296875 -2.535156 1.296875 -2.328125 C 1.035156 -2.328125 0.84375 -2.351562 0.71875 -2.40625 C 0.59375 -2.46875 0.53125 -2.578125 0.53125 -2.734375 C 0.53125 -2.878906 0.585938 -2.992188 0.703125 -3.078125 C 0.816406 -3.171875 0.96875 -3.238281 1.15625 -3.28125 C 1.34375 -3.332031 1.554688 -3.359375 1.796875 -3.359375 C 2.222656 -3.359375 2.539062 -3.28125 2.75 -3.125 C 2.96875 -2.96875 3.078125 -2.695312 3.078125 -2.3125 L 3.078125 -0.75 C 3.078125 -0.582031 3.101562 -0.46875 3.15625 -0.40625 C 3.207031 -0.351562 3.300781 -0.328125 3.4375 -0.328125 L 3.46875 -0.328125 L 3.46875 0 L 2.328125 0 L 2.203125 -0.421875 L 2.140625 -0.421875 C 2.054688 -0.304688 1.972656 -0.210938 1.890625 -0.140625 C 1.804688 -0.078125 1.710938 -0.03125 1.609375 0 C 1.515625 0.0390625 1.390625 0.0625 1.234375 0.0625 Z M 1.5625 -0.390625 C 1.738281 -0.390625 1.878906 -0.457031 1.984375 -0.59375 C 2.085938 -0.738281 2.140625 -0.929688 2.140625 -1.171875 L 2.140625 -1.625 L 1.875 -1.609375 C 1.625 -1.597656 1.453125 -1.53125 1.359375 -1.40625 C 1.265625 -1.289062 1.21875 -1.125 1.21875 -0.90625 C 1.21875 -0.5625 1.332031 -0.390625 1.5625 -0.390625 Z "/>
</g>
<g id="glyph-0-4">
<path d="M 1.53125 0.0625 C 1.125 0.0625 0.8125 -0.0703125 0.59375 -0.34375 C 0.382812 -0.613281 0.28125 -1.039062 0.28125 -1.625 C 0.28125 -2.21875 0.382812 -2.648438 0.59375 -2.921875 C 0.8125 -3.203125 1.117188 -3.34375 1.515625 -3.34375 C 1.742188 -3.34375 1.925781 -3.296875 2.0625 -3.203125 C 2.207031 -3.117188 2.320312 -3.015625 2.40625 -2.890625 L 2.4375 -2.890625 C 2.425781 -2.984375 2.421875 -3.09375 2.421875 -3.21875 C 2.421875 -3.34375 2.421875 -3.457031 2.421875 -3.5625 L 2.421875 -3.9375 C 2.421875 -4.101562 2.367188 -4.207031 2.265625 -4.25 C 2.171875 -4.289062 2.054688 -4.3125 1.921875 -4.3125 L 1.875 -4.3125 L 1.875 -4.640625 L 3.34375 -4.640625 L 3.34375 -0.78125 C 3.34375 -0.59375 3.382812 -0.46875 3.46875 -0.40625 C 3.550781 -0.351562 3.664062 -0.328125 3.8125 -0.328125 L 3.875 -0.328125 L 3.875 0 L 2.65625 0 L 2.5 -0.46875 L 2.46875 -0.46875 C 2.375 -0.300781 2.25 -0.171875 2.09375 -0.078125 C 1.945312 0.015625 1.757812 0.0625 1.53125 0.0625 Z M 1.796875 -0.390625 C 2.035156 -0.390625 2.195312 -0.492188 2.28125 -0.703125 C 2.375 -0.910156 2.421875 -1.222656 2.421875 -1.640625 C 2.421875 -2.046875 2.375 -2.351562 2.28125 -2.5625 C 2.195312 -2.78125 2.035156 -2.890625 1.796875 -2.890625 C 1.585938 -2.890625 1.4375 -2.78125 1.34375 -2.5625 C 1.257812 -2.351562 1.21875 -2.046875 1.21875 -1.640625 C 1.21875 -1.222656 1.257812 -0.910156 1.34375 -0.703125 C 1.4375 -0.492188 1.585938 -0.390625 1.796875 -0.390625 Z "/>
</g>
<g id="glyph-0-5">
<path d="M 1.859375 0.0625 C 1.367188 0.0625 0.984375 -0.078125 0.703125 -0.359375 C 0.421875 -0.640625 0.28125 -1.070312 0.28125 -1.65625 C 0.28125 -2.226562 0.414062 -2.65625 0.6875 -2.9375 C 0.957031 -3.21875 1.351562 -3.359375 1.875 -3.359375 C 2.363281 -3.359375 2.75 -3.21875 3.03125 -2.9375 C 3.3125 -2.65625 3.453125 -2.226562 3.453125 -1.65625 C 3.453125 -1.070312 3.316406 -0.640625 3.046875 -0.359375 C 2.785156 -0.078125 2.390625 0.0625 1.859375 0.0625 Z M 1.875 -0.328125 C 2.113281 -0.328125 2.28125 -0.4375 2.375 -0.65625 C 2.46875 -0.882812 2.515625 -1.21875 2.515625 -1.65625 C 2.515625 -2.082031 2.460938 -2.40625 2.359375 -2.625 C 2.265625 -2.851562 2.101562 -2.96875 1.875 -2.96875 C 1.632812 -2.96875 1.46875 -2.851562 1.375 -2.625 C 1.28125 -2.40625 1.234375 -2.082031 1.234375 -1.65625 C 1.234375 -1.21875 1.28125 -0.882812 1.375 -0.65625 C 1.46875 -0.4375 1.632812 -0.328125 1.875 -0.328125 Z "/>
</g>
<g id="glyph-0-6">
</g>
<g id="glyph-0-7">
<path d="M 1.046875 -3.828125 C 0.898438 -3.828125 0.773438 -3.859375 0.671875 -3.921875 C 0.578125 -3.992188 0.53125 -4.109375 0.53125 -4.265625 C 0.53125 -4.421875 0.578125 -4.53125 0.671875 -4.59375 C 0.773438 -4.664062 0.898438 -4.703125 1.046875 -4.703125 C 1.191406 -4.703125 1.3125 -4.664062 1.40625 -4.59375 C 1.507812 -4.53125 1.5625 -4.421875 1.5625 -4.265625 C 1.5625 -4.109375 1.507812 -3.992188 1.40625 -3.921875 C 1.3125 -3.859375 1.191406 -3.828125 1.046875 -3.828125 Z M 0.109375 0 L 0.109375 -0.328125 L 0.171875 -0.328125 C 0.296875 -0.328125 0.398438 -0.351562 0.484375 -0.40625 C 0.566406 -0.46875 0.609375 -0.582031 0.609375 -0.75 L 0.609375 -2.546875 C 0.609375 -2.703125 0.566406 -2.804688 0.484375 -2.859375 C 0.398438 -2.921875 0.296875 -2.953125 0.171875 -2.953125 L 0.109375 -2.953125 L 0.109375 -3.28125 L 1.546875 -3.28125 L 1.546875 -0.75 C 1.546875 -0.582031 1.585938 -0.46875 1.671875 -0.40625 C 1.753906 -0.351562 1.851562 -0.328125 1.96875 -0.328125 L 2.046875 -0.328125 L 2.046875 0 Z "/>
</g>
<g id="glyph-0-8">
<path d="M 1.875 0.0625 C 1.351562 0.0625 0.957031 -0.0820312 0.6875 -0.375 C 0.414062 -0.675781 0.28125 -1.09375 0.28125 -1.625 C 0.28125 -2.195312 0.410156 -2.628906 0.671875 -2.921875 C 0.941406 -3.210938 1.316406 -3.359375 1.796875 -3.359375 C 2.242188 -3.359375 2.59375 -3.234375 2.84375 -2.984375 C 3.101562 -2.734375 3.234375 -2.363281 3.234375 -1.875 L 3.234375 -1.5625 L 1.234375 -1.5625 C 1.242188 -1.15625 1.316406 -0.859375 1.453125 -0.671875 C 1.597656 -0.484375 1.804688 -0.390625 2.078125 -0.390625 C 2.285156 -0.390625 2.457031 -0.441406 2.59375 -0.546875 C 2.726562 -0.648438 2.832031 -0.769531 2.90625 -0.90625 C 2.957031 -0.882812 3.003906 -0.847656 3.046875 -0.796875 C 3.085938 -0.753906 3.109375 -0.703125 3.109375 -0.640625 C 3.109375 -0.523438 3.066406 -0.414062 2.984375 -0.3125 C 2.898438 -0.207031 2.765625 -0.117188 2.578125 -0.046875 C 2.398438 0.0234375 2.164062 0.0625 1.875 0.0625 Z M 2.296875 -1.96875 C 2.296875 -2.269531 2.257812 -2.507812 2.1875 -2.6875 C 2.113281 -2.863281 1.988281 -2.953125 1.8125 -2.953125 C 1.644531 -2.953125 1.507812 -2.867188 1.40625 -2.703125 C 1.3125 -2.535156 1.253906 -2.289062 1.234375 -1.96875 Z "/>
</g>
<g id="glyph-0-9">
<path d="M 0.125 0 L 0.125 -0.328125 L 0.140625 -0.328125 C 0.285156 -0.328125 0.398438 -0.347656 0.484375 -0.390625 C 0.566406 -0.441406 0.609375 -0.566406 0.609375 -0.765625 L 0.609375 -2.53125 C 0.609375 -2.707031 0.566406 -2.820312 0.484375 -2.875 C 0.410156 -2.925781 0.304688 -2.953125 0.171875 -2.953125 L 0.15625 -2.953125 L 0.15625 -3.28125 L 1.375 -3.28125 L 1.5 -2.6875 L 1.53125 -2.6875 C 1.625 -2.90625 1.734375 -3.066406 1.859375 -3.171875 C 1.992188 -3.285156 2.1875 -3.34375 2.4375 -3.34375 C 2.664062 -3.34375 2.832031 -3.289062 2.9375 -3.1875 C 3.050781 -3.09375 3.109375 -2.96875 3.109375 -2.8125 C 3.109375 -2.625 3.039062 -2.484375 2.90625 -2.390625 C 2.769531 -2.304688 2.582031 -2.265625 2.34375 -2.265625 C 2.34375 -2.429688 2.320312 -2.554688 2.28125 -2.640625 C 2.238281 -2.722656 2.160156 -2.765625 2.046875 -2.765625 C 1.953125 -2.765625 1.875 -2.726562 1.8125 -2.65625 C 1.75 -2.59375 1.695312 -2.503906 1.65625 -2.390625 C 1.613281 -2.285156 1.582031 -2.164062 1.5625 -2.03125 C 1.550781 -1.90625 1.546875 -1.785156 1.546875 -1.671875 L 1.546875 -0.734375 C 1.546875 -0.554688 1.582031 -0.441406 1.65625 -0.390625 C 1.738281 -0.347656 1.84375 -0.328125 1.96875 -0.328125 L 2.15625 -0.328125 L 2.15625 0 Z "/>
</g>
<g id="glyph-0-10">
<path d="M 1.796875 0.0625 C 1.492188 0.0625 1.226562 0.0078125 1 -0.09375 C 0.78125 -0.207031 0.601562 -0.382812 0.46875 -0.625 C 0.34375 -0.875 0.28125 -1.207031 0.28125 -1.625 C 0.28125 -2.0625 0.347656 -2.40625 0.484375 -2.65625 C 0.617188 -2.90625 0.796875 -3.082031 1.015625 -3.1875 C 1.242188 -3.300781 1.5 -3.359375 1.78125 -3.359375 C 2.175781 -3.359375 2.476562 -3.296875 2.6875 -3.171875 C 2.894531 -3.046875 3 -2.894531 3 -2.71875 C 3 -2.625 2.972656 -2.535156 2.921875 -2.453125 C 2.878906 -2.378906 2.800781 -2.316406 2.6875 -2.265625 C 2.570312 -2.210938 2.410156 -2.1875 2.203125 -2.1875 C 2.203125 -2.332031 2.1875 -2.460938 2.15625 -2.578125 C 2.132812 -2.703125 2.097656 -2.800781 2.046875 -2.875 C 1.992188 -2.945312 1.914062 -2.984375 1.8125 -2.984375 C 1.6875 -2.984375 1.582031 -2.941406 1.5 -2.859375 C 1.414062 -2.785156 1.347656 -2.648438 1.296875 -2.453125 C 1.253906 -2.253906 1.234375 -1.976562 1.234375 -1.625 C 1.234375 -1.21875 1.285156 -0.910156 1.390625 -0.703125 C 1.503906 -0.492188 1.691406 -0.390625 1.953125 -0.390625 C 2.160156 -0.390625 2.34375 -0.4375 2.5 -0.53125 C 2.65625 -0.632812 2.769531 -0.753906 2.84375 -0.890625 C 2.894531 -0.859375 2.929688 -0.816406 2.953125 -0.765625 C 2.972656 -0.710938 2.984375 -0.660156 2.984375 -0.609375 C 2.984375 -0.503906 2.941406 -0.398438 2.859375 -0.296875 C 2.773438 -0.191406 2.644531 -0.101562 2.46875 -0.03125 C 2.300781 0.03125 2.078125 0.0625 1.796875 0.0625 Z M 1.640625 1.46875 C 1.566406 1.46875 1.476562 1.457031 1.375 1.4375 C 1.269531 1.425781 1.179688 1.414062 1.109375 1.40625 L 1.109375 1.03125 C 1.265625 1.0625 1.398438 1.078125 1.515625 1.078125 C 1.628906 1.078125 1.71875 1.054688 1.78125 1.015625 C 1.851562 0.972656 1.890625 0.898438 1.890625 0.796875 C 1.890625 0.671875 1.84375 0.585938 1.75 0.546875 C 1.664062 0.515625 1.5625 0.492188 1.4375 0.484375 L 1.5625 -0.0625 L 1.90625 -0.0625 L 1.84375 0.203125 C 2.039062 0.222656 2.195312 0.28125 2.3125 0.375 C 2.4375 0.476562 2.5 0.609375 2.5 0.765625 C 2.5 0.984375 2.421875 1.15625 2.265625 1.28125 C 2.109375 1.40625 1.898438 1.46875 1.640625 1.46875 Z "/>
</g>
<g id="glyph-0-11">
<path d="M 1.234375 0.0625 C 0.960938 0.0625 0.734375 -0.015625 0.546875 -0.171875 C 0.367188 -0.335938 0.28125 -0.59375 0.28125 -0.9375 C 0.28125 -1.257812 0.390625 -1.5 0.609375 -1.65625 C 0.835938 -1.820312 1.179688 -1.914062 1.640625 -1.9375 L 2.140625 -1.953125 L 2.140625 -2.28125 C 2.140625 -2.507812 2.109375 -2.679688 2.046875 -2.796875 C 1.992188 -2.921875 1.882812 -2.984375 1.71875 -2.984375 C 1.5625 -2.984375 1.453125 -2.925781 1.390625 -2.8125 C 1.328125 -2.695312 1.296875 -2.535156 1.296875 -2.328125 C 1.035156 -2.328125 0.84375 -2.351562 0.71875 -2.40625 C 0.59375 -2.46875 0.53125 -2.578125 0.53125 -2.734375 C 0.53125 -2.878906 0.585938 -2.992188 0.703125 -3.078125 C 0.816406 -3.171875 0.96875 -3.238281 1.15625 -3.28125 C 1.34375 -3.332031 1.554688 -3.359375 1.796875 -3.359375 C 2.222656 -3.359375 2.539062 -3.28125 2.75 -3.125 C 2.96875 -2.96875 3.078125 -2.695312 3.078125 -2.3125 L 3.078125 -0.75 C 3.078125 -0.582031 3.101562 -0.46875 3.15625 -0.40625 C 3.207031 -0.351562 3.300781 -0.328125 3.4375 -0.328125 L 3.46875 -0.328125 L 3.46875 0 L 2.328125 0 L 2.203125 -0.421875 L 2.140625 -0.421875 C 2.054688 -0.304688 1.972656 -0.210938 1.890625 -0.140625 C 1.804688 -0.078125 1.710938 -0.03125 1.609375 0 C 1.515625 0.0390625 1.390625 0.0625 1.234375 0.0625 Z M 1.5625 -0.390625 C 1.738281 -0.390625 1.878906 -0.457031 1.984375 -0.59375 C 2.085938 -0.738281 2.140625 -0.929688 2.140625 -1.171875 L 2.140625 -1.625 L 1.875 -1.609375 C 1.625 -1.597656 1.453125 -1.53125 1.359375 -1.40625 C 1.265625 -1.289062 1.21875 -1.125 1.21875 -0.90625 C 1.21875 -0.5625 1.332031 -0.390625 1.5625 -0.390625 Z M 2.296875 -3.703125 C 2.179688 -3.703125 2.078125 -3.71875 1.984375 -3.75 C 1.898438 -3.789062 1.816406 -3.835938 1.734375 -3.890625 C 1.660156 -3.941406 1.585938 -3.988281 1.515625 -4.03125 C 1.453125 -4.070312 1.390625 -4.09375 1.328125 -4.09375 C 1.242188 -4.09375 1.175781 -4.054688 1.125 -3.984375 C 1.070312 -3.921875 1.039062 -3.847656 1.03125 -3.765625 L 0.640625 -3.765625 C 0.640625 -3.929688 0.671875 -4.082031 0.734375 -4.21875 C 0.804688 -4.351562 0.898438 -4.460938 1.015625 -4.546875 C 1.128906 -4.628906 1.257812 -4.671875 1.40625 -4.671875 C 1.507812 -4.671875 1.609375 -4.648438 1.703125 -4.609375 C 1.796875 -4.566406 1.878906 -4.519531 1.953125 -4.46875 C 2.023438 -4.425781 2.09375 -4.382812 2.15625 -4.34375 C 2.226562 -4.300781 2.296875 -4.28125 2.359375 -4.28125 C 2.453125 -4.28125 2.519531 -4.3125 2.5625 -4.375 C 2.613281 -4.445312 2.644531 -4.523438 2.65625 -4.609375 L 3.046875 -4.609375 C 3.046875 -4.441406 3.007812 -4.289062 2.9375 -4.15625 C 2.875 -4.019531 2.785156 -3.910156 2.671875 -3.828125 C 2.566406 -3.742188 2.441406 -3.703125 2.296875 -3.703125 Z "/>
</g>
</g>
</defs>
<g fill="rgb(34.509804%, 76.862745%, 86.666667%)" fill-opacity="1">
<use xlink:href="#glyph-0-0" x="30" y="26.532227"/>
<use xlink:href="#glyph-0-1" x="34" y="26.532227"/>
<use xlink:href="#glyph-0-2" x="37" y="26.532227"/>
<use xlink:href="#glyph-0-3" x="39" y="26.532227"/>
<use xlink:href="#glyph-0-4" x="43" y="26.532227"/>
<use xlink:href="#glyph-0-5" x="47" y="26.532227"/>
<use xlink:href="#glyph-0-6" x="51" y="26.532227"/>
<use xlink:href="#glyph-0-4" x="53" y="26.532227"/>
<use xlink:href="#glyph-0-3" x="57" y="26.532227"/>
<use xlink:href="#glyph-0-6" x="61" y="26.532227"/>
<use xlink:href="#glyph-0-7" x="63" y="26.532227"/>
<use xlink:href="#glyph-0-2" x="65" y="26.532227"/>
<use xlink:href="#glyph-0-8" x="67" y="26.532227"/>
<use xlink:href="#glyph-0-9" x="70" y="26.532227"/>
<use xlink:href="#glyph-0-3" x="73" y="26.532227"/>
<use xlink:href="#glyph-0-10" x="77" y="26.532227"/>
<use xlink:href="#glyph-0-11" x="80" y="26.532227"/>
<use xlink:href="#glyph-0-5" x="84" y="26.532227"/>
</g>
</svg>
